<?xml version="1.0" encoding="UTF-8" standalone="no"?>
<!-- Created with Inkscape (http://www.inkscape.org/) -->

<svg
   width="10.079111mm"
   height="9.54671mm"
   viewBox="0 0 10.079111 9.5467099"
   version="1.1"
   id="svg1911"
   inkscape:version="1.2 (dc2aedaf03, 2022-05-15)"
   sodipodi:docname="cython.svg"
   xml:space="preserve"
   xmlns:inkscape="http://www.inkscape.org/namespaces/inkscape"
   xmlns:sodipodi="http://sodipodi.sourceforge.net/DTD/sodipodi-0.dtd"
   xmlns:xlink="http://www.w3.org/1999/xlink"
   xmlns="http://www.w3.org/2000/svg"
   xmlns:svg="http://www.w3.org/2000/svg"><sodipodi:namedview
     id="namedview1913"
     pagecolor="#ffffff"
     bordercolor="#666666"
     borderopacity="1.0"
     inkscape:showpageshadow="2"
     inkscape:pageopacity="0.0"
     inkscape:pagecheckerboard="0"
     inkscape:deskcolor="#d1d1d1"
     inkscape:document-units="mm"
     showgrid="false"
     inkscape:zoom="5.2500988"
     inkscape:cx="32.856525"
     inkscape:cy="33.332706"
     inkscape:window-width="1920"
     inkscape:window-height="1011"
     inkscape:window-x="0"
     inkscape:window-y="0"
     inkscape:window-maximized="1"
     inkscape:current-layer="layer1" /><defs
     id="defs1908"><radialGradient
       cx="15.115"
       cy="63.965"
       r="12.289"
       fx="15.115"
       fy="63.965"
       id="rg1"
       xlink:href="#lg4"
       gradientUnits="userSpaceOnUse"
       gradientTransform="matrix(0.79808419,0,0,0.27521634,73.512375,96.151306)" /><linearGradient
       id="lg4"><stop
         stop-color="#000"
         offset="0"
         id="stop4682" /><stop
         stop-color="#000"
         stop-opacity="0"
         offset="1"
         id="stop4684" /></linearGradient><linearGradient
       x1="119.191"
       y1="89.129997"
       x2="116.965"
       y2="169.27901"
       id="lg8"
       xlink:href="#lg3"
       gradientUnits="userSpaceOnUse"
       gradientTransform="matrix(0.17651527,0,0,0.17651527,65.428917,84.76227)" /><linearGradient
       id="lg3"><stop
         stop-color="#ffe253"
         offset="0"
         id="stop4677" /><stop
         stop-color="#ffca1c"
         offset="1"
         id="stop4679" /></linearGradient><linearGradient
       x1="94.693001"
       y1="112.511"
       x2="94.693001"
       y2="64.053001"
       id="lg7"
       xlink:href="#lg2"
       gradientUnits="userSpaceOnUse"
       gradientTransform="matrix(0.17651527,0,0,0.17651527,70.463197,89.77605)" /><linearGradient
       id="lg2"><stop
         stop-color="#fff"
         offset="0"
         id="stop4672" /><stop
         stop-color="#fff"
         stop-opacity="0.165"
         offset="1"
         id="stop4674" /></linearGradient><linearGradient
       x1="59.728001"
       y1="102"
       x2="142.62"
       y2="102"
       id="lg6"
       xlink:href="#lg1"
       gradientUnits="userSpaceOnUse"
       gradientTransform="matrix(0.17651527,0,0,0.17651527,64.935202,84.056465)" /><linearGradient
       id="lg1"><stop
         stop-color="#3778ae"
         offset="0"
         id="stop4667" /><stop
         stop-color="#366c99"
         offset="1"
         id="stop4669" /></linearGradient><linearGradient
       x1="94.693001"
       y1="112.511"
       x2="94.693001"
       y2="64.053001"
       id="lg5"
       xlink:href="#lg2"
       gradientUnits="userSpaceOnUse"
       gradientTransform="matrix(0.17651527,0,0,0.17651527,64.935202,84.056465)" /><radialGradient
       cx="61.518883"
       cy="132.28575"
       r="29.036913"
       fx="61.518883"
       fy="132.28575"
       id="radialGradient1480"
       xlink:href="#linearGradient2795"
       gradientUnits="userSpaceOnUse"
       gradientTransform="matrix(2.382716e-8,-0.296405,1.43676,4.683673e-7,-128.544,150.5202)" /><linearGradient
       id="linearGradient2795"><stop
         id="stop2797"
         style="stop-color:#b8b8b8;stop-opacity:0.49803922"
         offset="0" /><stop
         id="stop2799"
         style="stop-color:#7f7f7f;stop-opacity:0"
         offset="1" /></linearGradient><linearGradient
       x1="26.648937"
       y1="20.603781"
       x2="135.66525"
       y2="114.39767"
       id="linearGradient1478"
       xlink:href="#linearGradient4689"
       gradientUnits="userSpaceOnUse"
       gradientTransform="matrix(0.562541,0,0,0.567972,33.698482,31.68078)" /><linearGradient
       id="linearGradient4689"><stop
         id="stop4691"
         style="stop-color:#5a9fd4;stop-opacity:1"
         offset="0" /><stop
         id="stop4693"
         style="stop-color:#306998;stop-opacity:1"
         offset="1" /></linearGradient><linearGradient
       x1="150.96111"
       y1="192.35176"
       x2="112.03144"
       y2="137.27299"
       id="linearGradient1475"
       xlink:href="#linearGradient4671"
       gradientUnits="userSpaceOnUse"
       gradientTransform="matrix(0.562541,0,0,0.567972,33.698482,31.68078)" /><linearGradient
       id="linearGradient4671"><stop
         id="stop4673"
         style="stop-color:#ffd43b;stop-opacity:1"
         offset="0" /><stop
         id="stop4675"
         style="stop-color:#ffe873;stop-opacity:1"
         offset="1" /></linearGradient></defs><g
     inkscape:label="Layer 1"
     inkscape:groupmode="layer"
     id="layer1"
     transform="translate(-75.535638,-94.907331)"><g
       transform="matrix(0.04867666,0,0,0.04867666,75.535638,94.907331)"
       id="g4544"
       style="stroke-width:1.10448"><path
         d="m 110.46717,132.28575 a 48.948285,8.6066796 0 1 1 -97.896571,0 48.948285,8.6066796 0 1 1 97.896571,0 z"
         transform="matrix(0.73406,0,0,0.809524,58.972752,63.796144)"
         id="path1894"
         style="opacity:0.44382;fill:url(#radialGradient1480);fill-opacity:1;fill-rule:nonzero;stroke:none;stroke-width:1.10448" /><g
         transform="matrix(1.1081583,0,0,1.1081583,-5.641244,-12.285301)"
         id="g3206"
         style="stroke-width:1.10448"><path
           d="m 103.60839,43.38407 c -4.583656,0.0213 -8.960942,0.412218 -12.812503,1.09375 -11.346216,2.004504 -13.406249,6.200102 -13.40625,13.9375 v 10.21875 h 26.812503 v 3.40625 h -26.812503 -10.0625 c -7.792459,0 -14.615759,4.683717 -16.75,13.59375 -2.46182,10.212966 -2.571015,16.58602 0,27.25 1.905928,7.93785 6.457543,13.59375 14.25,13.59375 h 9.21875 v -12.25 c 0,-8.8499 7.657144,-16.656248 16.75,-16.65625 h 26.781253 c 7.45495,0 13.40625,-6.138164 13.40625,-13.625 V 58.41532 c 0,-7.266339 -6.12998,-12.724778 -13.40625,-13.9375 -4.60599,-0.766725 -9.3851,-1.115048 -13.96875,-1.09375 z m -14.500003,8.21875 c 2.769547,0 5.03125,2.298646 5.03125,5.125 -2e-6,2.816336 -2.261703,5.09375 -5.03125,5.09375 -2.779476,-1e-6 -5.03125,-2.277415 -5.03125,-5.09375 -10e-7,-2.826353 2.251774,-5.125 5.03125,-5.125 z"
           id="path1948"
           style="fill:url(#linearGradient1478);fill-opacity:1;stroke-width:1.10448" /><path
           d="m 134.32714,72.04032 v 11.90625 c 0,9.230755 -7.8259,17 -16.75,17 H 90.795887 c -7.335833,0 -13.406249,6.27848 -13.40625,13.625 v 25.53125 c 0,7.26634 6.318588,11.54032 13.40625,13.625 8.487331,2.49561 16.626233,2.94663 26.781253,0 6.75015,-1.95439 13.40625,-5.88761 13.40625,-13.625 v -10.21875 h -26.78125 v -3.40625 h 26.78125 13.40625 c 7.79246,0 10.69625,-5.43541 13.40624,-13.59375 2.79933,-8.39889 2.68022,-16.475776 0,-27.25 -1.92578,-7.757441 -5.60387,-13.59375 -13.40624,-13.59375 z m -15.0625,64.65625 c 2.77948,0 5.03125,2.27742 5.03125,5.09375 -1e-5,2.82635 -2.25178,5.125 -5.03125,5.125 -2.76955,0 -5.03125,-2.29865 -5.03125,-5.125 0,-2.81633 2.26169,-5.09375 5.03125,-5.09375 z"
           id="path1950"
           style="fill:url(#linearGradient1475);fill-opacity:1;stroke-width:1.10448" /></g><g
         transform="translate(32.006378,36.786794)"
         id="g3179"
         style="stroke-width:1.10448" /><path
         d="M 107.59375,0 C 74.969981,0 48.572931,9.593118 28.500001,28.6875 9.501691,46.686855 0,68.782099 0,95.0625 c 0,27.95719 8.76385,51.23143 26.343751,69.8125 19.38518,20.80534 46.2467,31.25 80.718749,31.25 34.77298,0 62.02099,-10.44466 81.75,-31.25 5.28096,-5.47462 9.77236,-11.3677 13.5,-17.65625 H 162.125 c -10.40946,19.29518 -28.49867,29.02426 -54.28125,29.1875 -23.038689,0.30796 -40.324359,-8.80579 -51.843749,-27.25 -9.02632,-14.47476 -13.5,-32.50135 -13.5,-54.09375 0,-47.085733 21.49392,-71.671499 64.562499,-73.65625 23.29663,0.855493 40.53553,9.111781 51.625,24.750001 2.11114,2.904448 3.95875,5.998052 5.59375,9.25 H 207.0625 C 202.36242,45.663815 195.74812,36.768402 187.21875,28.6875 166.75895,9.593117 140.21761,0 107.59375,0 Z"
         id="path2196"
         style="fill:#646464;fill-opacity:1;stroke-width:1.10448" /></g></g></svg>
