<?xml version="1.0" encoding="UTF-8" standalone="no"?>
<!-- Created with Inkscape (http://www.inkscape.org/) -->

<svg
   width="9.5389538mm"
   height="9.5467129mm"
   viewBox="0 0 9.5389537 9.5467128"
   version="1.1"
   id="svg1911"
   inkscape:version="1.2 (dc2aedaf03, 2022-05-15)"
   sodipodi:docname="fortran.svg"
   xml:space="preserve"
   xmlns:inkscape="http://www.inkscape.org/namespaces/inkscape"
   xmlns:sodipodi="http://sodipodi.sourceforge.net/DTD/sodipodi-0.dtd"
   xmlns:xlink="http://www.w3.org/1999/xlink"
   xmlns="http://www.w3.org/2000/svg"
   xmlns:svg="http://www.w3.org/2000/svg"><sodipodi:namedview
     id="namedview1913"
     pagecolor="#ffffff"
     bordercolor="#666666"
     borderopacity="1.0"
     inkscape:showpageshadow="2"
     inkscape:pageopacity="0.0"
     inkscape:pagecheckerboard="0"
     inkscape:deskcolor="#d1d1d1"
     inkscape:document-units="mm"
     showgrid="false"
     inkscape:zoom="5.2500988"
     inkscape:cx="32.856525"
     inkscape:cy="33.332706"
     inkscape:window-width="1920"
     inkscape:window-height="1011"
     inkscape:window-x="0"
     inkscape:window-y="0"
     inkscape:window-maximized="1"
     inkscape:current-layer="layer1" /><defs
     id="defs1908"><radialGradient
       cx="15.115"
       cy="63.965"
       r="12.289"
       fx="15.115"
       fy="63.965"
       id="rg1"
       xlink:href="#lg4"
       gradientUnits="userSpaceOnUse"
       gradientTransform="matrix(0.79808419,0,0,0.27521634,73.512375,96.151306)" /><linearGradient
       id="lg4"><stop
         stop-color="#000"
         offset="0"
         id="stop4682" /><stop
         stop-color="#000"
         stop-opacity="0"
         offset="1"
         id="stop4684" /></linearGradient><linearGradient
       x1="119.191"
       y1="89.129997"
       x2="116.965"
       y2="169.27901"
       id="lg8"
       xlink:href="#lg3"
       gradientUnits="userSpaceOnUse"
       gradientTransform="matrix(0.17651527,0,0,0.17651527,65.428917,84.76227)" /><linearGradient
       id="lg3"><stop
         stop-color="#ffe253"
         offset="0"
         id="stop4677" /><stop
         stop-color="#ffca1c"
         offset="1"
         id="stop4679" /></linearGradient><linearGradient
       x1="94.693001"
       y1="112.511"
       x2="94.693001"
       y2="64.053001"
       id="lg7"
       xlink:href="#lg2"
       gradientUnits="userSpaceOnUse"
       gradientTransform="matrix(0.17651527,0,0,0.17651527,70.463197,89.77605)" /><linearGradient
       id="lg2"><stop
         stop-color="#fff"
         offset="0"
         id="stop4672" /><stop
         stop-color="#fff"
         stop-opacity="0.165"
         offset="1"
         id="stop4674" /></linearGradient><linearGradient
       x1="59.728001"
       y1="102"
       x2="142.62"
       y2="102"
       id="lg6"
       xlink:href="#lg1"
       gradientUnits="userSpaceOnUse"
       gradientTransform="matrix(0.17651527,0,0,0.17651527,64.935202,84.056465)" /><linearGradient
       id="lg1"><stop
         stop-color="#3778ae"
         offset="0"
         id="stop4667" /><stop
         stop-color="#366c99"
         offset="1"
         id="stop4669" /></linearGradient><linearGradient
       x1="94.693001"
       y1="112.511"
       x2="94.693001"
       y2="64.053001"
       id="lg5"
       xlink:href="#lg2"
       gradientUnits="userSpaceOnUse"
       gradientTransform="matrix(0.17651527,0,0,0.17651527,64.935202,84.056465)" /><radialGradient
       cx="61.518883"
       cy="132.28575"
       r="29.036913"
       fx="61.518883"
       fy="132.28575"
       id="radialGradient1480"
       xlink:href="#linearGradient2795"
       gradientUnits="userSpaceOnUse"
       gradientTransform="matrix(0,-0.01167982,0.05133772,1.8455976e-8,73.813153,103.94395)" /><linearGradient
       id="linearGradient2795"><stop
         id="stop2797"
         style="stop-color:#b8b8b8;stop-opacity:0.49803922"
         offset="0" /><stop
         id="stop2799"
         style="stop-color:#7f7f7f;stop-opacity:0"
         offset="1" /></linearGradient><linearGradient
       x1="26.648937"
       y1="20.603781"
       x2="135.66525"
       y2="114.39767"
       id="linearGradient1478"
       xlink:href="#linearGradient4689"
       gradientUnits="userSpaceOnUse"
       gradientTransform="matrix(0.562541,0,0,0.567972,33.698482,31.68078)" /><linearGradient
       id="linearGradient4689"><stop
         id="stop4691"
         style="stop-color:#5a9fd4;stop-opacity:1"
         offset="0" /><stop
         id="stop4693"
         style="stop-color:#306998;stop-opacity:1"
         offset="1" /></linearGradient><linearGradient
       x1="150.96111"
       y1="192.35176"
       x2="112.03144"
       y2="137.27299"
       id="linearGradient1475"
       xlink:href="#linearGradient4671"
       gradientUnits="userSpaceOnUse"
       gradientTransform="matrix(0.562541,0,0,0.567972,33.698482,31.68078)" /><linearGradient
       id="linearGradient4671"><stop
         id="stop4673"
         style="stop-color:#ffd43b;stop-opacity:1"
         offset="0" /><stop
         id="stop4675"
         style="stop-color:#ffe873;stop-opacity:1"
         offset="1" /></linearGradient></defs><g
     inkscape:label="Layer 1"
     inkscape:groupmode="layer"
     id="layer1"
     transform="translate(-75.535677,-94.907331)"><g
       transform="matrix(0.04867666,0,0,0.04867666,77.093602,96.697989)"
       id="g3179"
       style="stroke-width:1.10448" /><path
       sodipodi:nodetypes="sssssssssccsccssccscccsssssscccccssccccc"
       id="path4878"
       d="m 77.126322,104.45404 c -0.789184,0.002 -1.584522,-0.86754 -1.585045,-1.50733 l -0.0056,-6.527086 c -5.71e-4,-0.740502 0.938096,-1.512301 1.512294,-1.512293 l 6.522937,1.13e-4 c 0.755325,1.6e-5 1.504205,0.905494 1.503722,1.49378 l -0.0056,6.563756 c -7.17e-4,0.81913 -0.790183,1.47268 -1.45765,1.47421 z m 3.684416,-1.86186 c -0.33907,-0.0469 -0.700947,-0.0178 -1.021925,-0.0851 -0.06243,-0.0133 -0.162929,-0.1006 -0.162929,-0.19321 v -2.396532 c 1.210166,0.154252 1.219382,0.366492 1.301842,1.394252 0.0072,0.0942 0.01998,0.14415 0.0402,0.15985 0.02127,0.0166 0.132487,0.0228 0.405999,0.0228 0.272594,0 0.406861,-0.006 0.429329,-0.0228 v -3.749732 l -0.400078,-0.0048 c -0.465862,-0.0056 -0.458596,-0.0081 -0.474691,0.157081 -0.02022,0.893878 -0.445295,1.134184 -1.302559,1.195609 v -2.289223 c 0.0228,-0.01893 0.139278,-0.01925 0.74851,-0.0016 1.277472,0.03665 1.54533,0.05438 1.684583,0.111445 0.297623,0.122006 0.471847,0.276863 0.600298,0.549457 0.196957,0.417954 0.229568,0.839823 0.259624,1.305395 0.01466,0.227739 0.03077,0.259479 0.145029,0.283194 0.05067,0.01055 0.239855,0.01684 0.420478,0.0141 l 0.328405,-0.0048 v -3.123994 c -2.335393,-0.0032 -4.670793,-0.0064 -7.006185,-0.0092 v 0.851108 c 0.423021,0 0.797134,-0.0082 0.944871,0.08248 0.102149,0.05671 0.169608,0.103735 0.169471,0.179549 l -0.0097,5.331221 c -2.9e-4,0.17571 -0.180395,0.19713 -0.689186,0.21415 -0.138189,0.0153 -0.284226,-0.005 -0.415424,0.0454 v 0.84128 h 4.004113 z"
       style="font-variation-settings:normal;fill:#734f96;fill-opacity:1;stroke:none;stroke-width:0.0227138;stroke-linecap:round;stroke-linejoin:round;stroke-miterlimit:4;stroke-dasharray:none;stroke-dashoffset:0;stroke-opacity:1;paint-order:normal;stop-color:#000000" /></g></svg>
