<?xml version="1.0" encoding="UTF-8" standalone="no"?>
<!-- Created with Inkscape (http://www.inkscape.org/) -->

<svg
   width="9.5389538mm"
   height="9.5467129mm"
   viewBox="0 0 9.5389537 9.5467128"
   version="1.1"
   id="svg1911"
   inkscape:version="1.2 (dc2aedaf03, 2022-05-15)"
   sodipodi:docname="rust.svg"
   xml:space="preserve"
   xmlns:inkscape="http://www.inkscape.org/namespaces/inkscape"
   xmlns:sodipodi="http://sodipodi.sourceforge.net/DTD/sodipodi-0.dtd"
   xmlns:xlink="http://www.w3.org/1999/xlink"
   xmlns="http://www.w3.org/2000/svg"
   xmlns:svg="http://www.w3.org/2000/svg"><sodipodi:namedview
     id="namedview1913"
     pagecolor="#ffffff"
     bordercolor="#666666"
     borderopacity="1.0"
     inkscape:showpageshadow="2"
     inkscape:pageopacity="0.0"
     inkscape:pagecheckerboard="0"
     inkscape:deskcolor="#d1d1d1"
     inkscape:document-units="mm"
     showgrid="false"
     inkscape:zoom="5.2500988"
     inkscape:cx="32.856525"
     inkscape:cy="33.332706"
     inkscape:window-width="1920"
     inkscape:window-height="1011"
     inkscape:window-x="0"
     inkscape:window-y="0"
     inkscape:window-maximized="1"
     inkscape:current-layer="layer1" /><defs
     id="defs1908"><radialGradient
       cx="15.115"
       cy="63.965"
       r="12.289"
       fx="15.115"
       fy="63.965"
       id="rg1"
       xlink:href="#lg4"
       gradientUnits="userSpaceOnUse"
       gradientTransform="matrix(0.79808419,0,0,0.27521634,73.512375,96.151306)" /><linearGradient
       id="lg4"><stop
         stop-color="#000"
         offset="0"
         id="stop4682" /><stop
         stop-color="#000"
         stop-opacity="0"
         offset="1"
         id="stop4684" /></linearGradient><linearGradient
       x1="119.191"
       y1="89.129997"
       x2="116.965"
       y2="169.27901"
       id="lg8"
       xlink:href="#lg3"
       gradientUnits="userSpaceOnUse"
       gradientTransform="matrix(0.17651527,0,0,0.17651527,65.428917,84.76227)" /><linearGradient
       id="lg3"><stop
         stop-color="#ffe253"
         offset="0"
         id="stop4677" /><stop
         stop-color="#ffca1c"
         offset="1"
         id="stop4679" /></linearGradient><linearGradient
       x1="94.693001"
       y1="112.511"
       x2="94.693001"
       y2="64.053001"
       id="lg7"
       xlink:href="#lg2"
       gradientUnits="userSpaceOnUse"
       gradientTransform="matrix(0.17651527,0,0,0.17651527,70.463197,89.77605)" /><linearGradient
       id="lg2"><stop
         stop-color="#fff"
         offset="0"
         id="stop4672" /><stop
         stop-color="#fff"
         stop-opacity="0.165"
         offset="1"
         id="stop4674" /></linearGradient><linearGradient
       x1="59.728001"
       y1="102"
       x2="142.62"
       y2="102"
       id="lg6"
       xlink:href="#lg1"
       gradientUnits="userSpaceOnUse"
       gradientTransform="matrix(0.17651527,0,0,0.17651527,64.935202,84.056465)" /><linearGradient
       id="lg1"><stop
         stop-color="#3778ae"
         offset="0"
         id="stop4667" /><stop
         stop-color="#366c99"
         offset="1"
         id="stop4669" /></linearGradient><linearGradient
       x1="94.693001"
       y1="112.511"
       x2="94.693001"
       y2="64.053001"
       id="lg5"
       xlink:href="#lg2"
       gradientUnits="userSpaceOnUse"
       gradientTransform="matrix(0.17651527,0,0,0.17651527,64.935202,84.056465)" /><radialGradient
       cx="61.518883"
       cy="132.28575"
       r="29.036913"
       fx="61.518883"
       fy="132.28575"
       id="radialGradient1480"
       xlink:href="#linearGradient2795"
       gradientUnits="userSpaceOnUse"
       gradientTransform="matrix(0,-0.01167982,0.05133772,1.8455976e-8,73.813153,103.94395)" /><linearGradient
       id="linearGradient2795"><stop
         id="stop2797"
         style="stop-color:#b8b8b8;stop-opacity:0.49803922"
         offset="0" /><stop
         id="stop2799"
         style="stop-color:#7f7f7f;stop-opacity:0"
         offset="1" /></linearGradient><linearGradient
       x1="26.648937"
       y1="20.603781"
       x2="135.66525"
       y2="114.39767"
       id="linearGradient1478"
       xlink:href="#linearGradient4689"
       gradientUnits="userSpaceOnUse"
       gradientTransform="matrix(0.562541,0,0,0.567972,33.698482,31.68078)" /><linearGradient
       id="linearGradient4689"><stop
         id="stop4691"
         style="stop-color:#5a9fd4;stop-opacity:1"
         offset="0" /><stop
         id="stop4693"
         style="stop-color:#306998;stop-opacity:1"
         offset="1" /></linearGradient><linearGradient
       x1="150.96111"
       y1="192.35176"
       x2="112.03144"
       y2="137.27299"
       id="linearGradient1475"
       xlink:href="#linearGradient4671"
       gradientUnits="userSpaceOnUse"
       gradientTransform="matrix(0.562541,0,0,0.567972,33.698482,31.68078)" /><linearGradient
       id="linearGradient4671"><stop
         id="stop4673"
         style="stop-color:#ffd43b;stop-opacity:1"
         offset="0" /><stop
         id="stop4675"
         style="stop-color:#ffe873;stop-opacity:1"
         offset="1" /></linearGradient></defs><g
     inkscape:label="Layer 1"
     inkscape:groupmode="layer"
     id="layer1"
     transform="translate(-75.535677,-94.907331)"><g
       transform="matrix(0.04867666,0,0,0.04867666,77.093602,96.697989)"
       id="g3179"
       style="stroke-width:1.10448" /><path
       style="stroke-width:0.132176"
       id="path3"
       d="m 85.009471,99.55956 -0.40046,-0.247889 c -0.0034,-0.03903 -0.0075,-0.07792 -0.01138,-0.116667 l 0.34414,-0.320979 c 0.03503,-0.03261 0.05068,-0.08092 0.04116,-0.127692 -0.0092,-0.04689 -0.04206,-0.08557 -0.08686,-0.102249 l -0.439927,-0.164506 c -0.01103,-0.03806 -0.02262,-0.07593 -0.03441,-0.113557 l 0.274416,-0.381139 c 0.02792,-0.03875 0.03365,-0.08913 0.01544,-0.133333 -0.0182,-0.04399 -0.05806,-0.07559 -0.105172,-0.0833 l -0.463889,-0.07543 c -0.01807,-0.03517 -0.03682,-0.06986 -0.05578,-0.104166 l 0.194941,-0.427896 c 0.01993,-0.04358 0.01586,-0.09423 -0.01076,-0.133795 -0.02655,-0.03972 -0.07143,-0.06295 -0.119383,-0.06109 l -0.470826,0.01641 c -0.02434,-0.03041 -0.04916,-0.06061 -0.07434,-0.09023 l 0.108172,-0.4586 c 0.0109,-0.04654 -0.0028,-0.09533 -0.03675,-0.129147 -0.03358,-0.03379 -0.08249,-0.04765 -0.129058,-0.03675 l -0.458503,0.108096 c -0.02972,-0.0251 -0.05985,-0.05006 -0.09042,-0.07435 l 0.01648,-0.470811 c 0.0014,-0.04765 -0.02144,-0.09296 -0.06109,-0.119391 -0.03985,-0.02662 -0.09023,-0.03062 -0.133698,-0.01083 L 82.393708,95.8953 c -0.03448,-0.01896 -0.06919,-0.03772 -0.104166,-0.05585 l -0.07567,-0.463971 c -0.0075,-0.04702 -0.03917,-0.08695 -0.0833,-0.105173 -0.04399,-0.01834 -0.09451,-0.01241 -0.13325,0.01551 l -0.381408,0.274415 c -0.03758,-0.01193 -0.07526,-0.02344 -0.113378,-0.03434 l -0.164499,-0.440018 c -0.01669,-0.04482 -0.0553,-0.07774 -0.102263,-0.08704 -0.04682,-0.0092 -0.09505,0.0062 -0.127591,0.04123 l -0.320992,0.344416 c -0.03875,-0.0041 -0.07775,-0.0082 -0.116653,-0.01138 L 80.422647,94.97256 c -0.02503,-0.04054 -0.06943,-0.06523 -0.117205,-0.06523 -0.04771,0 -0.09214,0.02469 -0.117108,0.06523 l -0.247896,0.400556 c -0.03903,0.0034 -0.078,0.007 -0.116743,0.01138 L 79.502613,95.04008 c -0.03254,-0.03482 -0.08083,-0.0504 -0.127589,-0.04123 -0.04689,0.0094 -0.08558,0.0422 -0.102263,0.08704 l -0.164499,0.44001 c -0.03806,0.01096 -0.07584,0.02255 -0.113474,0.03434 l -0.381319,-0.274415 c -0.03875,-0.02799 -0.08922,-0.03392 -0.133332,-0.01551 -0.04399,0.0182 -0.07568,0.05813 -0.0833,0.105173 l -0.07567,0.463971 c -0.03503,0.01814 -0.0696,0.03682 -0.104166,0.05585 l -0.427806,-0.195031 c -0.04351,-0.01986 -0.09413,-0.01579 -0.133691,0.01083 -0.03972,0.02641 -0.06295,0.07172 -0.06116,0.119391 l 0.01641,0.470811 c -0.03041,0.02434 -0.06061,0.04923 -0.09041,0.07435 l -0.458511,-0.108082 c -0.04654,-0.01083 -0.09542,0.0034 -0.129147,0.03675 -0.03392,0.03386 -0.04765,0.08258 -0.03675,0.129141 l 0.107999,0.458607 c -0.02503,0.02972 -0.04978,0.05978 -0.07418,0.09022 l -0.470812,-0.01641 c -0.04751,-0.0014 -0.09288,0.02144 -0.119397,0.06109 -0.02662,0.03958 -0.03061,0.09023 -0.01083,0.133795 l 0.195038,0.427896 c -0.01896,0.03434 -0.03779,0.06902 -0.05585,0.104172 l -0.463889,0.07543 c -0.04716,0.0075 -0.08686,0.03917 -0.105179,0.08329 -0.0182,0.04413 -0.01234,0.0946 0.01544,0.133333 l 0.274422,0.381139 c -0.012,0.03765 -0.02351,0.07543 -0.03441,0.113564 l -0.440017,0.164498 c -0.04468,0.01669 -0.07758,0.0553 -0.08685,0.102263 -0.0093,0.04682 0.0069,0.09505 0.04116,0.127679 l 0.344223,0.320992 c -0.0041,0.03875 -0.0083,0.07775 -0.01138,0.116653 l -0.400459,0.24789 c -0.04061,0.02503 -0.0653,0.06936 -0.0653,0.117205 0,0.04785 0.02468,0.09214 0.0653,0.117115 l 0.400459,0.24789 c 0.0034,0.039 0.0075,0.0779 0.01138,0.11666 l -0.344223,0.32107 c -0.03496,0.0326 -0.05047,0.0808 -0.04116,0.12759 0.0093,0.0469 0.04213,0.0855 0.08685,0.10226 l 0.440017,0.1645 c 0.01096,0.0381 0.02255,0.0759 0.03441,0.11356 l -0.274422,0.38123 c -0.02786,0.0388 -0.03385,0.0892 -0.01544,0.13325 0.01827,0.0443 0.05813,0.0758 0.105269,0.0833 l 0.463799,0.0754 c 0.01813,0.0352 0.03675,0.0699 0.05585,0.10434 l -0.195038,0.42772 c -0.01986,0.0435 -0.01579,0.094 0.01083,0.13379 0.02662,0.0399 0.07194,0.063 0.119397,0.0612 l 0.470632,-0.0165 c 0.02455,0.0306 0.04923,0.0606 0.07435,0.0904 l -0.108,0.45869 c -0.01089,0.0465 0.0028,0.0951 0.03675,0.12887 0.03358,0.034 0.08258,0.0476 0.129134,0.0367 l 0.458517,-0.108 c 0.02979,0.0254 0.05999,0.05 0.0904,0.0742 l -0.01641,0.47091 c -0.0014,0.0476 0.02144,0.0929 0.06109,0.11948 0.03958,0.0266 0.09023,0.0305 0.133705,0.0106 l 0.427799,-0.19494 c 0.03441,0.0191 0.0691,0.0378 0.104173,0.0559 l 0.07568,0.4637 c 0.0075,0.0472 0.03916,0.0871 0.0833,0.10527 0.04399,0.0183 0.0946,0.0124 0.133333,-0.0154 l 0.381132,-0.27459 c 0.03765,0.012 0.07551,0.0237 0.113564,0.0345 l 0.164506,0.43984 c 0.01669,0.0447 0.0553,0.0777 0.102256,0.0868 0.04682,0.01 0.09506,-0.006 0.127589,-0.0412 l 0.321082,-0.34423 c 0.03875,0.004 0.07776,0.008 0.11675,0.0117 l 0.247889,0.40046 c 0.02496,0.0403 0.06935,0.0653 0.117115,0.0653 0.04772,0 0.09214,-0.0247 0.117205,-0.0653 l 0.247889,-0.40046 c 0.03903,-0.003 0.07792,-0.008 0.116667,-0.0117 l 0.320986,0.34423 c 0.03254,0.035 0.08083,0.0506 0.127584,0.0412 0.04696,-0.009 0.08558,-0.0421 0.102263,-0.0868 l 0.164506,-0.43984 c 0.03806,-0.0109 0.07592,-0.0226 0.113557,-0.0345 l 0.381229,0.27459 c 0.03875,0.0278 0.08922,0.0337 0.133243,0.0154 0.04406,-0.0181 0.07568,-0.0581 0.0833,-0.10527 l 0.07568,-0.4637 c 0.03503,-0.0181 0.06961,-0.037 0.104165,-0.0559 l 0.427813,0.19494 c 0.04351,0.0199 0.09405,0.0159 0.133692,-0.0106 0.03978,-0.0266 0.06288,-0.0718 0.06116,-0.11948 l -0.01641,-0.47091 c 0.03041,-0.0243 0.06061,-0.0488 0.09032,-0.0742 l 0.458517,0.108 c 0.04654,0.0109 0.09542,-0.003 0.129044,-0.0367 0.03392,-0.0339 0.04765,-0.0824 0.03675,-0.12887 l -0.107999,-0.45869 c 0.0251,-0.0298 0.04999,-0.0598 0.07418,-0.0904 l 0.470819,0.0165 c 0.04751,0.001 0.09287,-0.0213 0.11939,-0.0612 0.02662,-0.0397 0.03068,-0.0903 0.01076,-0.13379 l -0.194935,-0.42772 c 0.01903,-0.0345 0.03772,-0.0692 0.05578,-0.10434 l 0.463888,-0.0754 c 0.04723,-0.008 0.08695,-0.0391 0.105173,-0.0833 0.0182,-0.044 0.01248,-0.0944 -0.01544,-0.13325 l -0.274416,-0.38123 c 0.01179,-0.0376 0.02344,-0.0754 0.03441,-0.11356 l 0.439921,-0.1645 c 0.04475,-0.0168 0.07776,-0.0553 0.08685,-0.10226 0.0094,-0.0468 -0.0055,-0.0951 -0.04116,-0.12759 l -0.34414,-0.32107 c 0.0041,-0.0387 0.0083,-0.0778 0.01138,-0.11666 l 0.40046,-0.24789 c 0.04054,-0.02496 0.0653,-0.06935 0.0653,-0.117115 0,-0.04771 -0.02462,-0.09214 -0.06516,-0.117205 z m -2.680284,3.32207 c -0.152921,-0.033 -0.250165,-0.18374 -0.217357,-0.33712 0.03268,-0.15321 0.183371,-0.25073 0.33621,-0.21773 0.152922,0.0327 0.250351,0.18373 0.217551,0.33684 -0.03282,0.15312 -0.183551,0.25072 -0.336404,0.21801 z m -0.136063,-0.92031 c -0.139531,-0.0299 -0.27678,0.0589 -0.306678,0.19867 l -0.142179,0.66349 c -0.438728,0.19914 -0.925959,0.30978 -1.439073,0.30978 -0.524856,0 -1.022641,-0.11611 -1.469223,-0.32373 l -0.142083,-0.66347 c -0.02986,-0.13963 -0.167153,-0.22858 -0.306588,-0.1986 l -0.585748,0.12577 c -0.108724,-0.11191 -0.20989,-0.23112 -0.302844,-0.35699 h 2.850057 c 0.03227,0 0.05378,-0.006 0.05378,-0.0352 v -1.00818 c 0,-0.0294 -0.02144,-0.0352 -0.05378,-0.0352 h -0.833541 v -0.639059 h 0.901535 c 0.08233,0 0.44001,0.02351 0.554388,0.480749 0.03585,0.14063 0.114474,0.59805 0.168243,0.74451 0.05358,0.16423 0.271777,0.49232 0.504262,0.49232 h 1.420206 c 0.01614,0 0.03337,-10e-4 0.05151,-0.005 -0.09852,0.13387 -0.206608,0.26056 -0.322992,0.37894 z m -3.941894,0.90645 c -0.152936,0.033 -0.303486,-0.0645 -0.33639,-0.21772 -0.03268,-0.15348 0.06454,-0.30413 0.217454,-0.33712 0.152929,-0.0327 0.303582,0.0648 0.33639,0.21799 0.03268,0.15312 -0.06461,0.30405 -0.217454,0.33685 z m -1.081169,-4.384179 c 0.06344,0.143179 -6.89e-4,0.31096 -0.144089,0.374306 -0.142992,0.06351 -0.310318,-6.9e-4 -0.373754,-0.144365 -0.06344,-0.143268 6.89e-4,-0.31078 0.144089,-0.374305 0.143082,-0.06344 0.310319,6.89e-4 0.373754,0.144364 z m -0.332293,0.787708 0.61017,-0.271147 c 0.130327,-0.05785 0.189205,-0.210614 0.131333,-0.341216 l -0.125679,-0.284165 h 0.494235 v 2.227769 H 76.95069 c -0.08649,-0.30403 -0.132877,-0.624924 -0.132877,-0.956576 0,-0.126596 0.0069,-0.251723 0.01993,-0.374665 z m 2.677636,-0.216365 v -0.656643 h 1.176949 c 0.06082,0 0.429268,0.07027 0.429268,0.345766 0,0.228762 -0.282621,0.310781 -0.51503,0.310781 h -1.091187 z m 4.277277,0.59103 c 0,0.08713 -0.0034,0.173338 -0.0096,0.258922 h -0.357806 c -0.03585,0 -0.0502,0.02351 -0.0502,0.05861 v 0.164324 c 0,0.38679 -0.218096,0.4709 -0.40921,0.49231 -0.182006,0.0206 -0.38378,-0.0762 -0.408665,-0.18755 -0.107359,-0.603878 -0.286262,-0.732833 -0.568786,-0.955665 0.350601,-0.222653 0.715433,-0.551106 0.715433,-0.990758 0,-0.474741 -0.325454,-0.773759 -0.547286,-0.920399 -0.311243,-0.20516 -0.655831,-0.246256 -0.748785,-0.246256 h -3.700473 c 0.501799,-0.560049 1.181873,-0.956771 1.951074,-1.101136 l 0.436191,0.457607 c 0.09861,0.103256 0.261928,0.107089 0.365094,0.0084 l 0.488036,-0.466812 c 1.022672,0.190397 1.888475,0.82699 2.387453,1.700371 l -0.334114,0.754611 c -0.05771,0.130602 0.0014,0.283351 0.13143,0.341223 l 0.643247,0.285717 c 0.01117,0.114198 0.01696,0.229575 0.01696,0.346504 z M 80.094759,95.82911 c 0.11302,-0.108276 0.292281,-0.103994 0.400467,0.0092 0.108,0.113468 0.103897,0.292915 -0.0094,0.401094 -0.113013,0.108276 -0.292281,0.104083 -0.40046,-0.0093 -0.10791,-0.113288 -0.103801,-0.292736 0.0094,-0.401012 z m 3.315604,2.668237 c 0.06337,-0.143179 0.230672,-0.207794 0.373665,-0.144268 0.142992,0.06344 0.207525,0.231127 0.144089,0.374306 -0.06337,0.143268 -0.230666,0.207883 -0.373755,0.144364 -0.142813,-0.06343 -0.207339,-0.231037 -0.143999,-0.374402 z" /></g></svg>
