<?xml version="1.0" encoding="UTF-8" standalone="no"?>
<!-- Created with Inkscape (http://www.inkscape.org/) -->

<svg
   width="7.4794531mm"
   height="9.5467091mm"
   viewBox="0 0 7.479453 9.5467089"
   version="1.1"
   id="svg1911"
   inkscape:version="1.2 (dc2aedaf03, 2022-05-15)"
   sodipodi:docname="numba.svg"
   xml:space="preserve"
   xmlns:inkscape="http://www.inkscape.org/namespaces/inkscape"
   xmlns:sodipodi="http://sodipodi.sourceforge.net/DTD/sodipodi-0.dtd"
   xmlns:xlink="http://www.w3.org/1999/xlink"
   xmlns="http://www.w3.org/2000/svg"
   xmlns:svg="http://www.w3.org/2000/svg"><sodipodi:namedview
     id="namedview1913"
     pagecolor="#ffffff"
     bordercolor="#666666"
     borderopacity="1.0"
     inkscape:showpageshadow="2"
     inkscape:pageopacity="0.0"
     inkscape:pagecheckerboard="0"
     inkscape:deskcolor="#d1d1d1"
     inkscape:document-units="mm"
     showgrid="false"
     inkscape:zoom="5.2500988"
     inkscape:cx="33.523179"
     inkscape:cy="33.332706"
     inkscape:window-width="1920"
     inkscape:window-height="1011"
     inkscape:window-x="0"
     inkscape:window-y="0"
     inkscape:window-maximized="1"
     inkscape:current-layer="layer1" /><defs
     id="defs1908"><radialGradient
       cx="15.115"
       cy="63.965"
       r="12.289"
       fx="15.115"
       fy="63.965"
       id="rg1"
       xlink:href="#lg4"
       gradientUnits="userSpaceOnUse"
       gradientTransform="matrix(0.79808419,0,0,0.27521634,73.512375,96.151306)" /><linearGradient
       id="lg4"><stop
         stop-color="#000"
         offset="0"
         id="stop4682" /><stop
         stop-color="#000"
         stop-opacity="0"
         offset="1"
         id="stop4684" /></linearGradient><linearGradient
       x1="119.191"
       y1="89.129997"
       x2="116.965"
       y2="169.27901"
       id="lg8"
       xlink:href="#lg3"
       gradientUnits="userSpaceOnUse"
       gradientTransform="matrix(0.17651527,0,0,0.17651527,65.428917,84.76227)" /><linearGradient
       id="lg3"><stop
         stop-color="#ffe253"
         offset="0"
         id="stop4677" /><stop
         stop-color="#ffca1c"
         offset="1"
         id="stop4679" /></linearGradient><linearGradient
       x1="94.693001"
       y1="112.511"
       x2="94.693001"
       y2="64.053001"
       id="lg7"
       xlink:href="#lg2"
       gradientUnits="userSpaceOnUse"
       gradientTransform="matrix(0.17651527,0,0,0.17651527,70.463197,89.77605)" /><linearGradient
       id="lg2"><stop
         stop-color="#fff"
         offset="0"
         id="stop4672" /><stop
         stop-color="#fff"
         stop-opacity="0.165"
         offset="1"
         id="stop4674" /></linearGradient><linearGradient
       x1="59.728001"
       y1="102"
       x2="142.62"
       y2="102"
       id="lg6"
       xlink:href="#lg1"
       gradientUnits="userSpaceOnUse"
       gradientTransform="matrix(0.17651527,0,0,0.17651527,64.935202,84.056465)" /><linearGradient
       id="lg1"><stop
         stop-color="#3778ae"
         offset="0"
         id="stop4667" /><stop
         stop-color="#366c99"
         offset="1"
         id="stop4669" /></linearGradient><linearGradient
       x1="94.693001"
       y1="112.511"
       x2="94.693001"
       y2="64.053001"
       id="lg5"
       xlink:href="#lg2"
       gradientUnits="userSpaceOnUse"
       gradientTransform="matrix(0.17651527,0,0,0.17651527,64.935202,84.056465)" /></defs><g
     inkscape:label="Layer 1"
     inkscape:groupmode="layer"
     id="layer1"
     transform="translate(-75.535638,-94.907331)"><path
       inkscape:connector-curvature="0"
       d="m 80.061584,95.620747 a 0.30565039,0.30565039 0 0 1 -0.305654,0.30565 0.30565039,0.30565039 0 0 1 -0.305653,-0.30565 0.30565039,0.30565039 0 0 1 0.305653,-0.305651 0.30565039,0.30565039 0 0 1 0.305654,0.305651 z m 0.937324,0.203766 0.478852,-0.05095 -0.315835,-0.142634 0.07131,-0.285275 -0.305648,0.244517 c -0.57622,-1.062337 -1.662738,-0.800542 -3.382531,0.203767 -1.370799,0.800503 -2.558022,2.417961 -1.742211,3.657619 0.497163,0.755443 1.371303,1.051553 3.372349,-0.02037 2.347085,-1.257319 2.224824,-0.41777 0.804881,0.652053 l -2.231252,1.68107 1.609757,0.0102 -1.599569,2.67953 4.707016,-3.44366 -1.405991,-0.0815 c 1.08333,-0.83205 2.454188,-2.22533 1.772768,-3.321404 -0.520422,-0.837109 -1.572036,-0.934079 -4.961719,0.947517 -0.534251,0.29656 -0.901197,-0.02961 -0.468665,-0.458476 1.336643,-1.325356 3.82635,-1.982086 3.596485,-2.272001 z"
       style="vector-effect:none;fill:#00a3e0;fill-opacity:1;stroke:none;stroke-width:0.0619946px;stroke-linecap:butt;stroke-linejoin:miter;stroke-miterlimit:4;stroke-dasharray:none;stroke-dashoffset:0;stroke-opacity:1;paint-order:stroke fill markers"
       id="path906" /></g></svg>
