<?xml version="1.0" encoding="UTF-8" standalone="no"?>
<!-- Created with Inkscape (http://www.inkscape.org/) -->

<svg
   width="9.3481627mm"
   height="9.5467377mm"
   viewBox="0 0 9.3481626 9.5467376"
   version="1.1"
   id="svg1911"
   inkscape:version="1.2 (dc2aedaf03, 2022-05-15)"
   sodipodi:docname="py-flat.svg"
   xml:space="preserve"
   xmlns:inkscape="http://www.inkscape.org/namespaces/inkscape"
   xmlns:sodipodi="http://sodipodi.sourceforge.net/DTD/sodipodi-0.dtd"
   xmlns:xlink="http://www.w3.org/1999/xlink"
   xmlns="http://www.w3.org/2000/svg"
   xmlns:svg="http://www.w3.org/2000/svg"><sodipodi:namedview
     id="namedview1913"
     pagecolor="#ffffff"
     bordercolor="#666666"
     borderopacity="1.0"
     inkscape:showpageshadow="2"
     inkscape:pageopacity="0.0"
     inkscape:pagecheckerboard="0"
     inkscape:deskcolor="#d1d1d1"
     inkscape:document-units="mm"
     showgrid="false"
     inkscape:zoom="5.2500988"
     inkscape:cx="33.332706"
     inkscape:cy="33.332706"
     inkscape:window-width="1920"
     inkscape:window-height="1011"
     inkscape:window-x="0"
     inkscape:window-y="0"
     inkscape:window-maximized="1"
     inkscape:current-layer="layer1" /><defs
     id="defs1908"><radialGradient
       cx="15.115"
       cy="63.965"
       r="12.289"
       fx="15.115"
       fy="63.965"
       id="rg1"
       xlink:href="#lg4"
       gradientUnits="userSpaceOnUse"
       gradientTransform="matrix(0.79808419,0,0,0.27521634,73.512375,96.151306)" /><linearGradient
       id="lg4"><stop
         stop-color="#000"
         offset="0"
         id="stop4682" /><stop
         stop-color="#000"
         stop-opacity="0"
         offset="1"
         id="stop4684" /></linearGradient><linearGradient
       x1="119.191"
       y1="89.129997"
       x2="116.965"
       y2="169.27901"
       id="lg8"
       xlink:href="#lg3"
       gradientUnits="userSpaceOnUse"
       gradientTransform="matrix(0.17651527,0,0,0.17651527,65.428917,84.76227)" /><linearGradient
       id="lg3"><stop
         stop-color="#ffe253"
         offset="0"
         id="stop4677" /><stop
         stop-color="#ffca1c"
         offset="1"
         id="stop4679" /></linearGradient><linearGradient
       x1="94.693001"
       y1="112.511"
       x2="94.693001"
       y2="64.053001"
       id="lg7"
       xlink:href="#lg2"
       gradientUnits="userSpaceOnUse"
       gradientTransform="matrix(0.17651527,0,0,0.17651527,70.463197,89.77605)" /><linearGradient
       id="lg2"><stop
         stop-color="#fff"
         offset="0"
         id="stop4672" /><stop
         stop-color="#fff"
         stop-opacity="0.165"
         offset="1"
         id="stop4674" /></linearGradient><linearGradient
       x1="59.728001"
       y1="102"
       x2="142.62"
       y2="102"
       id="lg6"
       xlink:href="#lg1"
       gradientUnits="userSpaceOnUse"
       gradientTransform="matrix(0.17651527,0,0,0.17651527,64.935202,84.056465)" /><linearGradient
       id="lg1"><stop
         stop-color="#3778ae"
         offset="0"
         id="stop4667" /><stop
         stop-color="#366c99"
         offset="1"
         id="stop4669" /></linearGradient><linearGradient
       x1="94.693001"
       y1="112.511"
       x2="94.693001"
       y2="64.053001"
       id="lg5"
       xlink:href="#lg2"
       gradientUnits="userSpaceOnUse"
       gradientTransform="matrix(0.17651527,0,0,0.17651527,64.935202,84.056465)" /></defs><g
     inkscape:label="Layer 1"
     inkscape:groupmode="layer"
     id="layer1"
     transform="translate(-75.535642,-94.907327)"><g
       id="g1311"
       transform="matrix(0.50991429,0,0,0.50991429,36.492138,45.974733)"
       style="stroke-width:2.18214"><g
         id="g1306"
         transform="translate(27.086996,1.7642494)"
         style="stroke-width:2.18214"><path
           id="path4702"
           style="opacity:1;fill:#ffd43b;fill-opacity:1;stroke:none;stroke-width:2.18214"
           d="m 63.609208,99.069662 v 1.554428 c 0,2.20689 -1.480656,3.21111 -2.765722,3.20911 l -4.396115,-0.006 c -1.098899,-0.001 -2.236789,1.04301 -2.234489,2.36885 l 0.0067,3.99407 c 0.0025,1.43197 1.125604,2.04154 2.215886,2.35903 1.305539,0.38017 2.592661,0.5756 4.231783,0.0527 1.028944,-0.32824 2.401461,-0.80975 2.400887,-2.41225 l -5.17e-4,-1.55753 -4.429704,-0.015 v -0.58342 h 6.040459 c 1.396577,0 1.994198,-0.11718 2.694925,-1.88981 0.496455,-1.25588 0.596631,-2.98322 0.184485,-4.62452 -0.29672,-1.18165 -0.932145,-2.449468 -2.132169,-2.449468 z m -2.505273,10.680488 a 0.82913679,0.82913679 0 0 1 0.829406,0.82889 0.82913679,0.82913679 0 0 1 -0.829406,0.82889 0.82913679,0.82913679 0 0 1 -0.82889,-0.82889 0.82913679,0.82913679 0 0 1 0.82889,-0.82889 z" /><path
           id="use555"
           style="fill:#306998;fill-opacity:1;stroke:none;stroke-width:2.18214"
           d="m 53.68713,108.04886 v -1.55443 c 0,-2.20689 1.480656,-3.21111 2.765722,-3.20911 l 4.396115,0.006 c 1.098899,0.001 2.236789,-1.04301 2.234489,-2.36885 l -0.0067,-3.99407 c -0.0025,-1.43197 -1.125604,-2.04154 -2.215886,-2.35903 -1.305539,-0.38017 -2.592661,-0.5756 -4.231783,-0.0527 -1.028944,0.32824 -2.401461,0.80975 -2.400887,2.41225 l 5.17e-4,1.55753 4.429704,0.015 v 0.58342 h -6.040459 c -1.396577,0 -1.994198,0.11718 -2.694925,1.88981 -0.496455,1.25588 -0.596631,2.98322 -0.184485,4.62452 0.29672,1.18165 0.932145,2.44947 2.132169,2.44947 z m 2.505273,-10.68049 a 0.82913679,0.82913679 0 0 1 -0.829406,-0.82889 0.82913679,0.82913679 0 0 1 0.829406,-0.82889 0.82913679,0.82913679 0 0 1 0.82889,0.82889 0.82913679,0.82913679 0 0 1 -0.82889,0.82889 z" /></g></g></g></svg>
