<?xml version="1.0" encoding="UTF-8" standalone="no"?>
<!-- Created with Inkscape (http://www.inkscape.org/) -->

<svg
   width="9.3481588mm"
   height="9.5271902mm"
   viewBox="0 0 9.3481589 9.52719"
   version="1.1"
   id="svg2093"
   inkscape:version="1.2 (dc2aedaf03, 2022-05-15)"
   sodipodi:docname="pypy.svg"
   xmlns:inkscape="http://www.inkscape.org/namespaces/inkscape"
   xmlns:sodipodi="http://sodipodi.sourceforge.net/DTD/sodipodi-0.dtd"
   xmlns="http://www.w3.org/2000/svg"
   xmlns:svg="http://www.w3.org/2000/svg">
  <sodipodi:namedview
     id="namedview2095"
     pagecolor="#ffffff"
     bordercolor="#666666"
     borderopacity="1.0"
     inkscape:showpageshadow="2"
     inkscape:pageopacity="0.0"
     inkscape:pagecheckerboard="0"
     inkscape:deskcolor="#d1d1d1"
     inkscape:document-units="mm"
     showgrid="false"
     inkscape:zoom="4.7572176"
     inkscape:cx="110.77904"
     inkscape:cy="47.716968"
     inkscape:window-width="1920"
     inkscape:window-height="1011"
     inkscape:window-x="0"
     inkscape:window-y="0"
     inkscape:window-maximized="1"
     inkscape:current-layer="g2723" />
  <defs
     id="defs2090">
    <linearGradient
       id="SVGID_1_"
       gradientUnits="userSpaceOnUse"
       x1="88.737198"
       y1="39.496399"
       x2="83.923897"
       y2="37.744499">
      <stop
         offset="0"
         style="stop-color:#FFFFFF"
         id="stop2538" />
      <stop
         offset="0.1884"
         style="stop-color:#FCFCFC"
         id="stop2540" />
      <stop
         offset="0.3217"
         style="stop-color:#F3F3F3"
         id="stop2542" />
      <stop
         offset="0.4381"
         style="stop-color:#E3E3E3"
         id="stop2544" />
      <stop
         offset="0.5447"
         style="stop-color:#CDCDCD"
         id="stop2546" />
      <stop
         offset="0.6448"
         style="stop-color:#B1B1B1"
         id="stop2548" />
      <stop
         offset="0.7399"
         style="stop-color:#8E8E8E"
         id="stop2550" />
      <stop
         offset="0.8311"
         style="stop-color:#646464"
         id="stop2552" />
      <stop
         offset="0.917"
         style="stop-color:#353535"
         id="stop2554" />
      <stop
         offset="1"
         style="stop-color:#000000"
         id="stop2556" />
    </linearGradient>
    <linearGradient
       id="SVGID_2_"
       gradientUnits="userSpaceOnUse"
       x1="176.7438"
       y1="61.144798"
       x2="73.711502"
       y2="23.6441">
      <stop
         offset="0"
         style="stop-color:#FFFFFF"
         id="stop2561" />
      <stop
         offset="0.1884"
         style="stop-color:#FCFCFC"
         id="stop2563" />
      <stop
         offset="0.3217"
         style="stop-color:#F3F3F3"
         id="stop2565" />
      <stop
         offset="0.4381"
         style="stop-color:#E3E3E3"
         id="stop2567" />
      <stop
         offset="0.5447"
         style="stop-color:#CDCDCD"
         id="stop2569" />
      <stop
         offset="0.6448"
         style="stop-color:#B1B1B1"
         id="stop2571" />
      <stop
         offset="0.7399"
         style="stop-color:#8E8E8E"
         id="stop2573" />
      <stop
         offset="0.8311"
         style="stop-color:#646464"
         id="stop2575" />
      <stop
         offset="0.917"
         style="stop-color:#353535"
         id="stop2577" />
      <stop
         offset="1"
         style="stop-color:#000000"
         id="stop2579" />
    </linearGradient>
    <linearGradient
       id="SVGID_3_"
       gradientUnits="userSpaceOnUse"
       x1="8.7971001"
       y1="77.124603"
       x2="113.9849"
       y2="137.8548"
       gradientTransform="matrix(0.53111147,0,0,0.53111147,0,80.13305)">
      <stop
         offset="0"
         style="stop-color:#FFFFFF"
         id="stop2586" />
      <stop
         offset="0.1884"
         style="stop-color:#FCFCFC"
         id="stop2588" />
      <stop
         offset="0.3217"
         style="stop-color:#F3F3F3"
         id="stop2590" />
      <stop
         offset="0.4381"
         style="stop-color:#E3E3E3"
         id="stop2592" />
      <stop
         offset="0.5447"
         style="stop-color:#CDCDCD"
         id="stop2594" />
      <stop
         offset="0.6448"
         style="stop-color:#B1B1B1"
         id="stop2596" />
      <stop
         offset="0.7399"
         style="stop-color:#8E8E8E"
         id="stop2598" />
      <stop
         offset="0.8311"
         style="stop-color:#646464"
         id="stop2600" />
      <stop
         offset="0.917"
         style="stop-color:#353535"
         id="stop2602" />
      <stop
         offset="1"
         style="stop-color:#000000"
         id="stop2604" />
    </linearGradient>
    <linearGradient
       id="SVGID_4_"
       gradientUnits="userSpaceOnUse"
       x1="85.050102"
       y1="41.2733"
       x2="86.086998"
       y2="38.4245">
      <stop
         offset="0"
         style="stop-color:#FFFFFF"
         id="stop2611" />
      <stop
         offset="0.1884"
         style="stop-color:#FCFCFC"
         id="stop2613" />
      <stop
         offset="0.3217"
         style="stop-color:#F3F3F3"
         id="stop2615" />
      <stop
         offset="0.4381"
         style="stop-color:#E3E3E3"
         id="stop2617" />
      <stop
         offset="0.5447"
         style="stop-color:#CDCDCD"
         id="stop2619" />
      <stop
         offset="0.6448"
         style="stop-color:#B1B1B1"
         id="stop2621" />
      <stop
         offset="0.7399"
         style="stop-color:#8E8E8E"
         id="stop2623" />
      <stop
         offset="0.8311"
         style="stop-color:#646464"
         id="stop2625" />
      <stop
         offset="0.917"
         style="stop-color:#353535"
         id="stop2627" />
      <stop
         offset="1"
         style="stop-color:#000000"
         id="stop2629" />
    </linearGradient>
    <linearGradient
       id="SVGID_5_"
       gradientUnits="userSpaceOnUse"
       x1="93.949997"
       y1="174.59219"
       x2="138.1377"
       y2="53.187599">
      <stop
         offset="0"
         style="stop-color:#FFFFFF"
         id="stop2634" />
      <stop
         offset="0.1884"
         style="stop-color:#FCFCFC"
         id="stop2636" />
      <stop
         offset="0.3217"
         style="stop-color:#F3F3F3"
         id="stop2638" />
      <stop
         offset="0.4381"
         style="stop-color:#E3E3E3"
         id="stop2640" />
      <stop
         offset="0.5447"
         style="stop-color:#CDCDCD"
         id="stop2642" />
      <stop
         offset="0.6448"
         style="stop-color:#B1B1B1"
         id="stop2644" />
      <stop
         offset="0.7399"
         style="stop-color:#8E8E8E"
         id="stop2646" />
      <stop
         offset="0.8311"
         style="stop-color:#646464"
         id="stop2648" />
      <stop
         offset="0.917"
         style="stop-color:#353535"
         id="stop2650" />
      <stop
         offset="1"
         style="stop-color:#000000"
         id="stop2652" />
    </linearGradient>
    <linearGradient
       id="SVGID_6_"
       gradientUnits="userSpaceOnUse"
       x1="48.9086"
       y1="3.3283999"
       x2="48.9086"
       y2="134.1741"
       gradientTransform="matrix(0.53111147,0,0,0.53111147,0,80.13305)">
      <stop
         offset="0"
         style="stop-color:#FFFFFF"
         id="stop2673" />
      <stop
         offset="0.1884"
         style="stop-color:#FCFCFC"
         id="stop2675" />
      <stop
         offset="0.3217"
         style="stop-color:#F3F3F3"
         id="stop2677" />
      <stop
         offset="0.4381"
         style="stop-color:#E3E3E3"
         id="stop2679" />
      <stop
         offset="0.5447"
         style="stop-color:#CDCDCD"
         id="stop2681" />
      <stop
         offset="0.6448"
         style="stop-color:#B1B1B1"
         id="stop2683" />
      <stop
         offset="0.7399"
         style="stop-color:#8E8E8E"
         id="stop2685" />
      <stop
         offset="0.8311"
         style="stop-color:#646464"
         id="stop2687" />
      <stop
         offset="0.917"
         style="stop-color:#353535"
         id="stop2689" />
      <stop
         offset="1"
         style="stop-color:#000000"
         id="stop2691" />
    </linearGradient>
    <linearGradient
       id="SVGID_7_"
       gradientUnits="userSpaceOnUse"
       x1="35.290901"
       y1="43.2855"
       x2="124.4093"
       y2="43.2855"
       gradientTransform="matrix(0.53111147,0,0,0.53111147,0,80.13305)">
      <stop
         offset="0"
         style="stop-color:#FFFFFF"
         id="stop2698" />
      <stop
         offset="0.1884"
         style="stop-color:#FCFCFC"
         id="stop2700" />
      <stop
         offset="0.3217"
         style="stop-color:#F3F3F3"
         id="stop2702" />
      <stop
         offset="0.4381"
         style="stop-color:#E3E3E3"
         id="stop2704" />
      <stop
         offset="0.5447"
         style="stop-color:#CDCDCD"
         id="stop2706" />
      <stop
         offset="0.6448"
         style="stop-color:#B1B1B1"
         id="stop2708" />
      <stop
         offset="0.7399"
         style="stop-color:#8E8E8E"
         id="stop2710" />
      <stop
         offset="0.8311"
         style="stop-color:#646464"
         id="stop2712" />
      <stop
         offset="0.917"
         style="stop-color:#353535"
         id="stop2714" />
      <stop
         offset="1"
         style="stop-color:#000000"
         id="stop2716" />
    </linearGradient>
  </defs>
  <g
     inkscape:label="Layer 1"
     inkscape:groupmode="layer"
     id="layer1"
     transform="translate(-70.374827,-35.937678)">
    <g
       id="g2723"
       transform="matrix(0.10501864,0,0,0.10501864,70.374827,27.517183)">
      <path
         class="st0"
         d="m 44.347808,81.885718 c -3.611558,0 -6.47956,0.796667 -9.878674,1.593334 l 2.708669,17.261128 c 0.531111,0.31866 1.009112,0.74355 1.487112,1.22155 1.85889,-0.42489 3.824003,-0.69044 5.789115,-0.69044 1.115334,0 2.177557,0.0531 3.23978,0.21244 -0.690445,-0.37178 -1.168445,-0.90289 -1.115334,-1.487111 0.05311,-1.009112 1.646445,-1.699557 3.505336,-1.540223 1.85889,0.159333 3.292891,1.062223 3.23978,2.071334 -0.05311,0.84978 -1.168446,1.434 -2.602447,1.54022 10.303563,2.65556 18.05779,11.79068 18.588902,22.8378 0.05311,0.478 0.05311,0.956 0.05311,1.48711 v 0 c 0,25.49335 -25.01535,44.50714 -25.01535,44.50714 0,0 0,0 0,0 24.53735,0 44.45403,-19.91668 44.45403,-44.50714 C 88.854947,101.8024 68.938268,81.885718 44.347808,81.885718 Z m 17.473567,21.403792 c -0.371778,-0.37178 -0.690445,-0.69044 -1.062223,-0.956 l 1.699557,-0.31867 c -0.212445,0.42489 -0.424889,0.84978 -0.637334,1.27467 z"
         id="path2534"
         style="fill:#90a99c;stroke-width:0.999998" />
      <path
         class="st1"
         d="M 44.507141,81.885718 C 19.91668,81.885718 0,101.8024 0,126.39286 0,150.98332 19.91668,170.9 44.507141,170.9 c 24.590461,0 44.507141,-19.91668 44.507141,-44.50714 0,-24.59046 -19.969791,-44.507142 -44.507141,-44.507142 z m 17.951568,20.076012 c -0.212445,0.478 -0.424889,0.90289 -0.637334,1.32778 -0.371778,-0.37178 -0.690445,-0.69044 -1.062223,-0.956 z m 4.62067,34.62847 c -0.106223,0.21244 -0.212445,0.478 -0.318667,0.69044 -1.38089,2.76178 -3.23978,5.2049 -5.52356,7.27623 -0.371778,0.31867 -0.743556,0.63734 -1.115334,0.956 -0.531111,0.42489 -1.115334,0.84978 -1.699556,1.27467 -0.637334,0.42489 -1.327779,0.84978 -2.071335,1.22156 -3.505336,1.912 -7.541783,3.02733 -11.843786,3.02733 -4.302003,0 -8.33845,-1.06222 -11.843786,-3.02733 -0.690445,-0.37178 -1.380889,-0.79667 -2.071334,-1.22156 -0.584223,-0.42489 -1.168446,-0.84978 -1.699557,-1.27467 -0.371778,-0.31866 -0.743556,-0.63733 -1.115334,-0.956 -0.318667,-0.26555 -0.584223,-0.53111 -0.849778,-0.84978 -1.858891,-1.85889 -3.452225,-4.03644 -4.673781,-6.42645 -0.106223,-0.21244 -0.212445,-0.478 -0.318667,-0.69044 -1.487112,-3.18667 -2.28378,-6.69201 -2.28378,-10.4629 0,-6.85133 2.76178,-13.06534 7.276228,-17.57979 0.265555,-0.26555 0.584222,-0.53111 0.849778,-0.84977 0.902889,-0.79667 1.805779,-1.54023 2.814891,-2.23067 1.805779,-1.22156 3.824002,-2.23067 5.948448,-2.92112 -0.318667,-0.31866 -0.637334,-0.63733 -1.009112,-0.90289 -0.796667,-0.53111 -1.752668,-0.84977 -2.761779,-1.00911 -1.009112,-0.21244 -2.071335,-0.21244 -3.133558,-0.15933 -1.062223,0.0531 -2.124446,0.21244 -3.186669,0.478 1.009112,-0.42489 2.018224,-0.79667 3.133558,-1.009112 1.062223,-0.265556 2.177557,-0.424889 3.346002,-0.424889 1.115334,0 2.336891,0.159333 3.452225,0.637331 0.902889,0.37178 1.699556,1.00911 2.390001,1.75267 1.85889,-0.42489 3.824003,-0.69044 5.842226,-0.69044 1.115335,0 2.177558,0.10622 3.292892,0.21244 -0.743556,-0.37178 -1.168446,-0.90289 -1.115334,-1.487112 0.05311,-1.009112 1.646445,-1.699557 3.505335,-1.540223 1.85889,0.159333 3.292891,1.062223 3.23978,2.071335 -0.05311,0.84978 -1.168445,1.434 -2.655557,1.54022 2.761779,0.69045 5.364226,1.85889 7.648005,3.45223 6.638893,4.46133 10.994007,12.05623 10.994007,20.60712 -0.159333,3.77089 -0.956,7.32934 -2.443112,10.51601 z"
         id="path2536"
         style="fill:#d1dcc0;stroke-width:0.999998" />
      <g
         id="g2584"
         transform="matrix(0.53111147,0,0,0.53111147,0,80.13305)"
         style="stroke-width:1.88284">
        <linearGradient
           id="linearGradient1756"
           gradientUnits="userSpaceOnUse"
           x1="88.737198"
           y1="39.496399"
           x2="83.923897"
           y2="37.744499">
          <stop
             offset="0"
             style="stop-color:#FFFFFF"
             id="stop1736" />
          <stop
             offset="0.1884"
             style="stop-color:#FCFCFC"
             id="stop1738" />
          <stop
             offset="0.3217"
             style="stop-color:#F3F3F3"
             id="stop1740" />
          <stop
             offset="0.4381"
             style="stop-color:#E3E3E3"
             id="stop1742" />
          <stop
             offset="0.5447"
             style="stop-color:#CDCDCD"
             id="stop1744" />
          <stop
             offset="0.6448"
             style="stop-color:#B1B1B1"
             id="stop1746" />
          <stop
             offset="0.7399"
             style="stop-color:#8E8E8E"
             id="stop1748" />
          <stop
             offset="0.8311"
             style="stop-color:#646464"
             id="stop1750" />
          <stop
             offset="0.917"
             style="stop-color:#353535"
             id="stop1752" />
          <stop
             offset="1"
             style="stop-color:#000000"
             id="stop1754" />
        </linearGradient>
        <path
           class="st2"
           d="m 86,38.3 c -0.5,0.2 -1,0.4 -1.4,0.5 -0.4,0.1 -0.8,0.2 -1.2,0.4 1.8,0 3.6,0.1 5.4,0.2 -0.6,-0.6 -1,-1.3 -1,-1.9 -0.1,0.1 -0.2,0.1 -0.3,0.2 -0.5,0.2 -1,0.4 -1.5,0.6 z"
           id="path2559"
           style="opacity:0.6;fill:url(#SVGID_1_);stroke-width:1.88284" />
        <linearGradient
           id="linearGradient1779"
           gradientUnits="userSpaceOnUse"
           x1="176.7438"
           y1="61.144798"
           x2="73.711502"
           y2="23.6441">
          <stop
             offset="0"
             style="stop-color:#FFFFFF"
             id="stop1759" />
          <stop
             offset="0.1884"
             style="stop-color:#FCFCFC"
             id="stop1761" />
          <stop
             offset="0.3217"
             style="stop-color:#F3F3F3"
             id="stop1763" />
          <stop
             offset="0.4381"
             style="stop-color:#E3E3E3"
             id="stop1765" />
          <stop
             offset="0.5447"
             style="stop-color:#CDCDCD"
             id="stop1767" />
          <stop
             offset="0.6448"
             style="stop-color:#B1B1B1"
             id="stop1769" />
          <stop
             offset="0.7399"
             style="stop-color:#8E8E8E"
             id="stop1771" />
          <stop
             offset="0.8311"
             style="stop-color:#646464"
             id="stop1773" />
          <stop
             offset="0.917"
             style="stop-color:#353535"
             id="stop1775" />
          <stop
             offset="1"
             style="stop-color:#000000"
             id="stop1777" />
        </linearGradient>
        <path
           class="st3"
           d="m 83.5,3.3 c -0.8,0 -1.6,0 -2.4,0.1 0.1,0 0.3,0.1 0.5,0.1 0.2,0 0.5,0.1 0.8,0.2 0.2,0 0.3,0.1 0.5,0.1 0.2,0 0.3,0.1 0.5,0.2 0.4,0.1 0.8,0.2 1.2,0.4 0.4,0 0.9,0.2 1.4,0.4 0.5,0.2 1,0.5 1.5,0.7 0.5,0.3 1,0.6 1.6,0.9 0.3,0.2 0.5,0.4 0.8,0.6 0.3,0.2 0.5,0.4 0.8,0.6 0.5,0.4 1,0.8 1.5,1.4 1,1 1.9,2.2 2.7,3.5 0.8,1.3 1.4,2.8 1.8,4.3 0.1,0.4 0.2,0.8 0.3,1.2 l 0.1,0.3 v 0.3 l 0.1,0.6 0.1,0.6 c 0,0.2 0,0.4 0,0.6 v 0.6 0.3 0.2 0.1 0 0 l -0.1,1.3 v 0.3 c 0,0.1 0,0.2 0,0.3 V 24 l -0.1,0.6 v 0.3 L 97,25.1 c -0.1,0.4 -0.2,0.8 -0.3,1.2 -0.5,1.5 -1,3 -1.8,4.3 -0.8,1.3 -1.7,2.5 -2.7,3.5 -0.2,0.2 -0.3,0.3 -0.5,0.5 0.8,-0.1 1.7,-0.2 2.7,-0.1 3.5,0.3 6.2,2 6.1,3.9 -0.1,0.9 -0.8,1.6 -1.8,2.1 45.5,7.5 68.6,46.6 68.6,46.6 0,-46.3 -37.5,-83.8 -83.8,-83.8 z m 32.9,40.3 c -0.7,-0.7 -1.3,-1.3 -2,-1.8 l 3.2,-0.6 c -0.4,0.8 -0.8,1.6 -1.2,2.4 z"
           id="path2582"
           style="opacity:0.6;fill:url(#SVGID_2_);stroke-width:1.88284" />
      </g>
      <linearGradient
         id="linearGradient1803"
         gradientUnits="userSpaceOnUse"
         x1="8.7971001"
         y1="77.124603"
         x2="113.9849"
         y2="137.8548">
        <stop
           offset="0"
           style="stop-color:#FFFFFF"
           id="stop1783" />
        <stop
           offset="0.1884"
           style="stop-color:#FCFCFC"
           id="stop1785" />
        <stop
           offset="0.3217"
           style="stop-color:#F3F3F3"
           id="stop1787" />
        <stop
           offset="0.4381"
           style="stop-color:#E3E3E3"
           id="stop1789" />
        <stop
           offset="0.5447"
           style="stop-color:#CDCDCD"
           id="stop1791" />
        <stop
           offset="0.6448"
           style="stop-color:#B1B1B1"
           id="stop1793" />
        <stop
           offset="0.7399"
           style="stop-color:#8E8E8E"
           id="stop1795" />
        <stop
           offset="0.8311"
           style="stop-color:#646464"
           id="stop1797" />
        <stop
           offset="0.917"
           style="stop-color:#353535"
           id="stop1799" />
        <stop
           offset="1"
           style="stop-color:#000000"
           id="stop1801" />
      </linearGradient>
      <path
         class="st4"
         d="m 69.363158,126.33975 c 0,-0.478 0,-1.00911 -0.05311,-1.48711 0,-0.0531 0,-0.0531 0,-0.10623 0,0.478 0.05311,0.90289 0.05311,1.38089 0,3.71778 -0.849778,7.27623 -2.283779,10.4629 -0.106223,0.21244 -0.212445,0.478 -0.318667,0.69044 -1.38089,2.76178 -3.23978,5.2049 -5.52356,7.27623 -0.371778,0.31867 -0.743556,0.63734 -1.115334,0.956 -0.531111,0.42489 -1.115334,0.84978 -1.699556,1.27467 -0.637334,0.42489 -1.327779,0.84978 -2.071335,1.22156 -3.505336,1.912 -7.541783,3.02733 -11.843786,3.02733 -0.478,0 -1.009112,0 -1.487112,-0.0531 0.478,0.0531 0.956001,0.0531 1.487112,0.0531 0,0 -41.3735833,5.15178 -44.08225182,-22.04112 -0.1062223,0 -0.21244459,0.0531 -0.26555574,0.0531 C 1.5402233,152.3642 20.81957,170.79377 44.45403,170.84688 c 0,0 0,0 0,0 0,0 24.962239,-18.96068 24.909128,-44.50714 z"
         id="path2607"
         style="opacity:0.6;fill:url(#SVGID_3_);stroke-width:0.999998" />
      <path
         class="st1"
         d="m 44.347808,81.885718 c -3.611558,0 -6.47956,0.796667 -9.878674,1.593334 l 1.487113,16.623788 c 0.106222,0.0531 0.159333,0.0531 0.265555,0.10622 0.265556,0.10623 0.584223,0.26556 0.849779,0.42489 0,0 0,0 0,0 0.265555,0.15934 0.531111,0.31867 0.743556,0.53111 l 6.426448,-0.21244 c 0.956001,0 1.912002,0.0531 2.868002,0.10622 -0.05311,-0.0531 -0.05311,-0.0531 -0.106222,-0.10622 -0.05311,-0.0531 -0.106222,-0.15933 -0.159333,-0.21244 -0.05311,-0.0531 -0.05311,-0.0531 -0.05311,-0.10623 -0.05311,-0.0531 -0.05311,-0.15933 -0.106223,-0.21244 0,-0.0531 -0.05311,-0.0531 -0.05311,-0.10622 -0.05311,-0.10623 -0.05311,-0.21245 -0.05311,-0.318671 0.05311,-1.009112 1.646445,-1.699557 3.505336,-1.540223 1.85889,0.159333 3.292891,1.062223 3.23978,2.071334 0,0.10622 -0.05311,0.21245 -0.106223,0.31867 -0.05311,0.0531 -0.106222,0.15933 -0.159333,0.21244 0,0 -0.05311,0.0531 -0.05311,0.10622 -0.106223,0.10623 -0.159334,0.15934 -0.265556,0.26556 0,0 0,0 0,0 -0.106222,0.10622 -0.265556,0.15933 -0.371778,0.21244 24.165572,3.98334 36.434247,24.7498 36.434247,24.7498 0.05311,-24.59046 -19.863569,-44.507142 -44.45403,-44.507142 z"
         id="path2609"
         style="fill:#d1dcc0;stroke-width:0.999998" />
      <g
         id="g2657"
         transform="matrix(0.53111147,0,0,0.53111147,0,80.13305)"
         style="stroke-width:1.88284">
        <linearGradient
           id="linearGradient1827"
           gradientUnits="userSpaceOnUse"
           x1="85.050102"
           y1="41.2733"
           x2="86.086998"
           y2="38.4245">
          <stop
             offset="0"
             style="stop-color:#FFFFFF"
             id="stop1807" />
          <stop
             offset="0.1884"
             style="stop-color:#FCFCFC"
             id="stop1809" />
          <stop
             offset="0.3217"
             style="stop-color:#F3F3F3"
             id="stop1811" />
          <stop
             offset="0.4381"
             style="stop-color:#E3E3E3"
             id="stop1813" />
          <stop
             offset="0.5447"
             style="stop-color:#CDCDCD"
             id="stop1815" />
          <stop
             offset="0.6448"
             style="stop-color:#B1B1B1"
             id="stop1817" />
          <stop
             offset="0.7399"
             style="stop-color:#8E8E8E"
             id="stop1819" />
          <stop
             offset="0.8311"
             style="stop-color:#646464"
             id="stop1821" />
          <stop
             offset="0.917"
             style="stop-color:#353535"
             id="stop1823" />
          <stop
             offset="1"
             style="stop-color:#000000"
             id="stop1825" />
        </linearGradient>
        <path
           class="st5"
           d="M 89.9,40.2 C 89.5,40 89.1,39.7 88.8,39.4 87,39.3 85.2,39.2 83.4,39.2 83.8,39.1 84.2,39 84.6,38.8 l -2.8,0.7 -0.7,0.3 c 0.9,0 1.7,-0.1 2.6,-0.1 2.1,0.1 4.2,0.2 6.2,0.5 z"
           id="path2632"
           style="opacity:0.6;fill:url(#SVGID_4_);stroke-width:1.88284" />
        <linearGradient
           id="linearGradient1850"
           gradientUnits="userSpaceOnUse"
           x1="93.949997"
           y1="174.59219"
           x2="138.1377"
           y2="53.187599">
          <stop
             offset="0"
             style="stop-color:#FFFFFF"
             id="stop1830" />
          <stop
             offset="0.1884"
             style="stop-color:#FCFCFC"
             id="stop1832" />
          <stop
             offset="0.3217"
             style="stop-color:#F3F3F3"
             id="stop1834" />
          <stop
             offset="0.4381"
             style="stop-color:#E3E3E3"
             id="stop1836" />
          <stop
             offset="0.5447"
             style="stop-color:#CDCDCD"
             id="stop1838" />
          <stop
             offset="0.6448"
             style="stop-color:#B1B1B1"
             id="stop1840" />
          <stop
             offset="0.7399"
             style="stop-color:#8E8E8E"
             id="stop1842" />
          <stop
             offset="0.8311"
             style="stop-color:#646464"
             id="stop1844" />
          <stop
             offset="0.917"
             style="stop-color:#353535"
             id="stop1846" />
          <stop
             offset="1"
             style="stop-color:#000000"
             id="stop1848" />
        </linearGradient>
        <path
           class="st6"
           d="m 98.7,40.5 c -0.8,0.4 -1.9,0.7 -3.1,0.8 19.4,5 34,22.2 35,43 0.1,0.9 0.1,1.8 0.1,2.8 v 0 c 0,48 -47.1,83.8 -47.1,83.8 0,0 0,0 0,0 46.2,0 83.7,-37.5 83.7,-83.8 0,0 -23.1,-39.1 -68.6,-46.6 z"
           id="path2655"
           style="opacity:0.6;fill:url(#SVGID_5_);stroke-width:1.88284" />
      </g>
      <path
         class="st0"
         d="m 46.631587,99.996619 c 0.05311,-0.743556 0.90289,-1.274668 2.071335,-1.487112 0.106222,-0.106222 0.159333,-0.159334 0.265556,-0.265556 0.531111,-0.531111 1.009111,-1.168445 1.434001,-1.85889 0.424889,-0.690445 0.743556,-1.487112 0.956,-2.283779 0.05311,-0.212445 0.106222,-0.42489 0.159334,-0.637334 l 0.05311,-0.159334 v -0.159333 l 0.05311,-0.318667 0.05311,-0.318667 c 0,-0.05311 0,-0.106222 0,-0.159333 V 92.18928 l 0.05311,-0.690445 v 0 0 -0.05311 -0.106222 -0.159333 -0.318667 c 0,-0.106223 0,-0.212445 0,-0.318667 l -0.05311,-0.318667 -0.05311,-0.318667 v -0.159333 l -0.106222,-0.05311 c -0.05311,-0.212444 -0.106223,-0.424889 -0.159334,-0.637333 -0.265556,-0.796668 -0.531111,-1.593335 -0.956,-2.28378 -0.42489,-0.690445 -0.90289,-1.327778 -1.434001,-1.85889 C 48.70292,84.6475 48.437364,84.381945 48.171808,84.1695 48.065586,84.063278 47.906253,83.957056 47.746919,83.850833 47.587586,83.744611 47.481363,83.638389 47.32203,83.532166 c -0.265556,-0.159333 -0.584223,-0.371778 -0.849778,-0.478 -0.265556,-0.159333 -0.531112,-0.265556 -0.796668,-0.371778 -0.265555,-0.106222 -0.531111,-0.212445 -0.743556,-0.265556 -0.212444,-0.05311 -0.424889,-0.106222 -0.637333,-0.212444 -0.106223,-0.05311 -0.212445,-0.05311 -0.265556,-0.106223 -0.106222,0 -0.159334,-0.05311 -0.265556,-0.05311 -0.159333,-0.05311 -0.318667,-0.05311 -0.424889,-0.106222 -0.159333,-0.05311 -0.318667,-0.05311 -0.318667,-0.05311 C 31.760466,82.257496 21.191348,86.825055 13.171564,94.844838 4.8331144,103.18329 0.21244459,114.28352 0.21244459,126.1273 c 0,0.26556 0,0.478 0,0.74356 0.69044491,29.58291 44.24158541,24.16557 44.24158541,24.16557 -13.702676,0 -24.909128,-11.15334 -24.909128,-24.90913 0,-7.70111 3.558447,-14.60556 9.028895,-19.17312 0.05311,-0.0531 0.159334,-0.10622 0.212445,-0.15933 0.531111,-0.42489 1.115334,-0.84978 1.646445,-1.22156 0.106223,-0.0531 0.212445,-0.10622 0.318667,-0.21245 0.584223,-0.37177 1.115334,-0.69044 1.699557,-1.06222 0.106222,-0.0531 0.212444,-0.10622 0.318667,-0.15933 0.584222,-0.31867 1.168445,-0.58422 1.805779,-0.84978 0.106222,-0.0531 0.265555,-0.10622 0.371778,-0.15933 0.478,-0.21245 1.009112,-0.37178 1.487112,-0.53111 -0.318667,-0.31867 -0.637334,-0.63734 -1.009112,-0.90289 -0.796667,-0.53112 -1.752668,-0.84978 -2.76178,-1.00912 -1.009111,-0.21244 -2.071334,-0.21244 -3.133557,-0.15933 -1.062223,0.0531 -2.124446,0.21245 -3.186669,0.478 1.009112,-0.42489 2.018223,-0.79667 3.133558,-1.009111 1.062223,-0.265556 2.177557,-0.424889 3.346002,-0.424889 1.115334,0 2.33689,0.159333 3.452224,0.63733 0.90289,0.37178 1.699557,1.00912 2.390002,1.75267 0.212445,-0.0531 0.371778,-0.10622 0.584223,-0.15933 0.159333,-0.0531 0.265555,-0.0531 0.424889,-0.10622 0.637334,-0.10623 1.327778,-0.21245 1.965112,-0.31867 0.159334,0 0.318667,-0.0531 0.478001,-0.0531 0.318666,-0.0531 0.584222,-0.0531 0.849778,-0.10622 0,0 0,0 0,0 0,0 0.106222,0 0.318667,-0.0531 0.106222,0 0.265556,-0.0531 0.424889,-0.10622 0.05311,0 0.159333,-0.0531 0.265556,-0.0531 0.106222,0 0.159333,-0.0531 0.265555,-0.10622 0.212445,-0.0531 0.42489,-0.10622 0.637334,-0.21245 0.212445,-0.10622 0.478001,-0.15933 0.743556,-0.26555 0.265556,-0.10622 0.531112,-0.26556 0.796667,-0.37178 0.106223,0.0531 0.159334,0 0.212445,-0.05311 0,0 0,0 0,0 z"
         id="path2671"
         style="fill:#90a99c;stroke-width:0.999998" />
      <linearGradient
         id="linearGradient1881"
         gradientUnits="userSpaceOnUse"
         x1="48.9086"
         y1="3.3283999"
         x2="48.9086"
         y2="134.1741">
        <stop
           offset="0"
           style="stop-color:#FFFFFF"
           id="stop1861" />
        <stop
           offset="0.1884"
           style="stop-color:#FCFCFC"
           id="stop1863" />
        <stop
           offset="0.3217"
           style="stop-color:#F3F3F3"
           id="stop1865" />
        <stop
           offset="0.4381"
           style="stop-color:#E3E3E3"
           id="stop1867" />
        <stop
           offset="0.5447"
           style="stop-color:#CDCDCD"
           id="stop1869" />
        <stop
           offset="0.6448"
           style="stop-color:#B1B1B1"
           id="stop1871" />
        <stop
           offset="0.7399"
           style="stop-color:#8E8E8E"
           id="stop1873" />
        <stop
           offset="0.8311"
           style="stop-color:#646464"
           id="stop1875" />
        <stop
           offset="0.917"
           style="stop-color:#353535"
           id="stop1877" />
        <stop
           offset="1"
           style="stop-color:#000000"
           id="stop1879" />
      </linearGradient>
      <path
         class="st8"
         d="m 46.631587,99.996619 c 0,-0.159333 0.05311,-0.265556 0.106222,-0.424889 0,0 0,0 0,0 0,0 0,0 0,0 0.05311,-0.05311 0.106223,-0.159334 0.159334,-0.212445 0,0 0,0 0,0 0,0 0,0 0,0 0.212444,-0.265556 0.531111,-0.478 0.956,-0.637334 0,0 0,0 0,0 0,0 0,0 0,0 0.05311,0 0.106223,-0.05311 0.159334,-0.05311 0,0 0,0 0,0 v 0 c 0.212444,-0.05311 0.424889,-0.159333 0.690445,-0.159333 v 0 0 c 0,0 0,0 0,0 0.106222,-0.106222 0.159333,-0.159334 0.265556,-0.265556 0.531111,-0.531111 1.009111,-1.168445 1.434001,-1.85889 0.424889,-0.690445 0.743556,-1.487112 0.956,-2.283779 0.05311,-0.212445 0.106222,-0.42489 0.159334,-0.637334 l 0.05311,-0.159334 v -0.159333 l 0.05311,-0.318667 0.05311,-0.318667 c 0,-0.05311 0,-0.106222 0,-0.159333 V 92.18928 l 0.05311,-0.690445 v 0 0 -0.05311 -0.106222 -0.159333 -0.318667 c 0,-0.106223 0,-0.212445 0,-0.318667 l -0.05311,-0.318667 -0.05311,-0.318667 v -0.159333 l -0.106222,-0.05311 c -0.05311,-0.212444 -0.106223,-0.424889 -0.159334,-0.637333 -0.265556,-0.796668 -0.531111,-1.593335 -0.956,-2.28378 -0.42489,-0.690445 -0.90289,-1.327778 -1.434001,-1.85889 C 48.70292,84.6475 48.437364,84.381945 48.171808,84.1695 48.065586,84.063278 47.906253,83.957056 47.746919,83.850833 47.587586,83.744611 47.481363,83.638389 47.32203,83.532166 c -0.265556,-0.159333 -0.584223,-0.371778 -0.849778,-0.478 -0.265556,-0.159333 -0.531112,-0.265556 -0.796668,-0.371778 -0.265555,-0.106222 -0.531111,-0.212445 -0.743556,-0.265556 -0.212444,-0.05311 -0.424889,-0.106222 -0.637333,-0.212444 -0.106223,-0.05311 -0.212445,-0.05311 -0.265556,-0.106223 -0.106222,0 -0.159334,-0.05311 -0.265556,-0.05311 -0.159333,-0.05311 -0.318667,-0.05311 -0.424889,-0.106222 -0.159333,-0.05311 -0.318667,-0.05311 -0.318667,-0.05311 C 31.760466,82.257496 21.191348,86.825055 13.171564,94.844838 4.8331144,103.18329 0.21244459,114.28352 0.21244459,126.1273 c 0,0.26556 0,0.478 0,0.74356 0.69044491,29.58291 44.24158541,24.16557 44.24158541,24.16557 -13.702676,0 -24.909128,-11.15334 -24.909128,-24.90913 0,-7.70111 3.558447,-14.60556 9.028895,-19.17312 0.05311,-0.0531 0.159334,-0.10622 0.212445,-0.15933 0.531111,-0.42489 1.115334,-0.84978 1.646445,-1.22156 0.106223,-0.0531 0.212445,-0.10622 0.318667,-0.21245 0.584223,-0.37177 1.115334,-0.69044 1.699557,-1.06222 0.106222,-0.0531 0.212444,-0.10622 0.318667,-0.15933 0.584222,-0.31867 1.168445,-0.58422 1.805779,-0.84978 0.106222,-0.0531 0.265555,-0.10622 0.371778,-0.15933 0.478,-0.21245 1.009112,-0.37178 1.487112,-0.53111 0,0 0,0 0,0 0,0 0,0 0,0 0,0 0,0 0,0 -0.159334,-0.15934 -0.265556,-0.31867 -0.478,-0.47801 -0.159334,-0.15933 -0.371779,-0.26555 -0.531112,-0.42488 -0.796667,-0.53112 -1.752668,-0.84978 -2.76178,-1.00912 -1.009111,-0.21244 -2.071334,-0.21244 -3.133557,-0.15933 -1.062223,0.0531 -2.124446,0.21245 -3.186669,0.478 1.009112,-0.42489 2.018223,-0.79667 3.133558,-1.009111 1.062223,-0.265556 2.177557,-0.424889 3.346002,-0.424889 1.115334,0 2.33689,0.159333 3.452224,0.63733 0.265556,0.10623 0.478001,0.26556 0.743556,0.37178 0,0 0,0 0,0 0,0 0,0 0,0 0.106223,0.0531 0.212445,0.10622 0.318667,0.21245 0,0 0,0 0,0 0,0 0,0 0,0 0.106223,0.10622 0.265556,0.15933 0.371778,0.26555 v 0 c 0.106223,0.10622 0.265556,0.21245 0.371778,0.31867 0,0 0,0 0,0 v 0 c 0,0 0,0 0,0 0.05311,0.0531 0.05311,0.0531 0.106223,0.10622 0,0 0,0 0,0 0.159333,0.15933 0.371778,0.31867 0.531111,0.53111 0.212445,-0.0531 0.371778,-0.10622 0.584223,-0.15933 0.159333,-0.0531 0.265556,-0.0531 0.424889,-0.10622 0.637334,-0.10623 1.327779,-0.21245 1.965112,-0.31867 0.159334,0 0.318667,-0.0531 0.478001,-0.0531 0.318667,-0.0531 0.584222,-0.0531 0.849778,-0.10622 0,0 0,0 0,0 0,0 0.106222,0 0.318667,-0.0531 0.106222,0 0.265556,-0.0531 0.424889,-0.10623 0.05311,0 0.159334,-0.0531 0.265556,-0.0531 0.106222,0 0.159333,-0.0531 0.265556,-0.10622 0.212444,-0.0531 0.424889,-0.10622 0.637333,-0.21244 0.212445,-0.10623 0.478001,-0.15934 0.743556,-0.26556 0.265556,-0.10622 0.531112,-0.26556 0.796668,-0.37178 0.05311,0 0.106222,-0.0531 0.159333,-0.106221 0,0 0,0 0,0 z"
         id="path2694"
         style="opacity:0.6;fill:url(#SVGID_6_);stroke-width:0.999998" />
      <path
         class="st9"
         d="m 61.290264,102.7584 c 0.371778,-0.10622 0.690445,-0.26556 1.009111,-0.42489 0,0 0,0 0,0 0.265556,-0.15933 0.584223,-0.31867 0.849779,-0.53111 0.05311,0 0.05311,-0.0531 0.106222,-0.0531 0.265556,-0.21245 0.478,-0.42489 0.743556,-0.63734 0.05311,-0.0531 0.05311,-0.0531 0.106222,-0.10622 0,0 0,0 0.05311,-0.0531 0.212444,-0.21244 0.424889,-0.42489 0.584222,-0.69045 0,0 0,0 0,0 0.212445,-0.265551 0.371778,-0.531107 0.531112,-0.796662 0.05311,-0.05311 0.05311,-0.106223 0.106222,-0.159334 0.159333,-0.265556 0.265556,-0.531111 0.371778,-0.849778 0,-0.05311 0,-0.05311 0.05311,-0.106223 0.106222,-0.265555 0.159334,-0.531111 0.212445,-0.849778 0,-0.05311 0,-0.106222 0.05311,-0.159333 0.05311,-0.212445 0.05311,-0.478001 0.106222,-0.690445 0,-0.05311 0,-0.159334 0.05311,-0.212445 0,-0.05311 0,-0.106222 0,-0.212444 0,-0.212445 0,-0.371778 0,-0.584223 0,-0.159334 0,-0.265556 0,-0.424889 v 0 c -0.159333,-1.805779 -1.062223,-3.399114 -2.283779,-4.567559 v 0 L 55.55426,83.266608 c -0.05311,-0.05311 -0.159334,-0.106223 -0.212445,-0.159334 l -0.371778,-0.371778 v 0 c -2.124446,-1.805779 -4.992448,-2.814891 -8.019783,-2.496224 -1.805779,0.159334 -3.505336,0.796667 -4.886226,1.752668 -0.531111,0.05311 -1.009111,0.05311 -1.540223,0.106222 -0.212444,0 -0.424889,0.05311 -0.637334,0.05311 -0.637333,0.05311 -1.274667,0.159333 -1.912001,0.265555 -0.159333,0 -0.318667,0.05311 -0.478,0.05311 -24.324906,4.939337 -18.004679,42.860703 -17.898457,43.657363 0,0 0,0 0,0 0,0 0,0 0,0 0,0 0,0 0,0 0,0 0,0 0,0 0,-7.70111 3.558447,-14.60556 9.028895,-19.17312 l 0.212445,-0.15933 c 0.531111,-0.42489 1.115334,-0.84978 1.646445,-1.22156 0.106223,-0.0531 0.212445,-0.10622 0.318667,-0.21245 0.584223,-0.37177 1.115334,-0.69044 1.699557,-1.06222 0.106222,-0.0531 0.212445,-0.10622 0.318667,-0.15933 0.584222,-0.31867 1.168445,-0.58422 1.805779,-0.84978 0.106222,-0.0531 0.265556,-0.10622 0.371778,-0.15933 0.478,-0.21245 1.009112,-0.37178 1.487112,-0.53111 -0.318667,-0.31867 -0.637334,-0.63734 -1.009112,-0.90289 -0.796667,-0.53112 -1.752668,-0.84978 -2.761779,-1.00912 -1.009112,-0.21244 -2.071335,-0.21244 -3.133558,-0.15933 -1.062223,0.0531 -2.124446,0.21245 -3.186669,0.478 1.009112,-0.42489 2.018224,-0.79667 3.133558,-1.009114 1.062223,-0.265556 2.177557,-0.424889 3.346002,-0.424889 1.115334,0 2.33689,0.159333 3.452225,0.637333 0.902889,0.37178 1.699556,1.00912 2.390001,1.75267 0,0 0,0 0,0 2.177557,2.49623 5.523559,3.98334 9.135117,3.61156 0.318667,-0.0531 0.637334,-0.10622 0.956001,-0.15933 v 0 h 0.106222 c 0,0 0,0 0.05311,0 l 11.472007,-2.33689 c 0.265556,-0.10623 0.584223,-0.21245 0.849779,-0.31867 z"
         id="path2696"
         style="fill:#3f616e;stroke-width:0.999998" />
      <linearGradient
         id="linearGradient1905"
         gradientUnits="userSpaceOnUse"
         x1="35.290901"
         y1="43.2855"
         x2="124.4093"
         y2="43.2855">
        <stop
           offset="0"
           style="stop-color:#FFFFFF"
           id="stop1885" />
        <stop
           offset="0.1884"
           style="stop-color:#FCFCFC"
           id="stop1887" />
        <stop
           offset="0.3217"
           style="stop-color:#F3F3F3"
           id="stop1889" />
        <stop
           offset="0.4381"
           style="stop-color:#E3E3E3"
           id="stop1891" />
        <stop
           offset="0.5447"
           style="stop-color:#CDCDCD"
           id="stop1893" />
        <stop
           offset="0.6448"
           style="stop-color:#B1B1B1"
           id="stop1895" />
        <stop
           offset="0.7399"
           style="stop-color:#8E8E8E"
           id="stop1897" />
        <stop
           offset="0.8311"
           style="stop-color:#646464"
           id="stop1899" />
        <stop
           offset="0.917"
           style="stop-color:#353535"
           id="stop1901" />
        <stop
           offset="1"
           style="stop-color:#000000"
           id="stop1903" />
      </linearGradient>
      <path
         class="st10"
         d="m 61.290264,102.7584 c 0.371778,-0.10622 0.690445,-0.26556 1.009111,-0.42489 0,0 0,0 0,0 0.265556,-0.15933 0.584223,-0.31867 0.849779,-0.53111 0.05311,0 0.05311,-0.0531 0.106222,-0.0531 0.265556,-0.21245 0.478,-0.42489 0.743556,-0.63734 0.05311,-0.0531 0.05311,-0.0531 0.106222,-0.10622 0,0 0,0 0.05311,-0.0531 0.212444,-0.21244 0.424889,-0.42489 0.584222,-0.69045 0,0 0,0 0,0 0.212445,-0.265551 0.371778,-0.531107 0.531112,-0.796662 0.05311,-0.05311 0.05311,-0.106223 0.106222,-0.159334 0.159333,-0.265556 0.265556,-0.531111 0.371778,-0.849778 0,-0.05311 0,-0.05311 0.05311,-0.106223 0.106222,-0.265555 0.159334,-0.531111 0.212445,-0.849778 0,-0.05311 0,-0.106222 0.05311,-0.159333 0.05311,-0.212445 0.05311,-0.478001 0.106222,-0.690445 0,-0.05311 0,-0.159334 0.05311,-0.212445 0,-0.05311 0,-0.106222 0,-0.212444 0,-0.212445 0,-0.371778 0,-0.584223 0,-0.159334 0,-0.265556 0,-0.424889 v 0 c -0.159333,-1.805779 -1.062223,-3.399114 -2.283779,-4.567559 v 0 L 55.55426,83.266608 c -0.05311,-0.05311 -0.159334,-0.106223 -0.212445,-0.159334 l -0.371778,-0.371778 v 0 c -2.124446,-1.805779 -4.992448,-2.814891 -8.019783,-2.496224 -1.805779,0.159334 -3.505336,0.796667 -4.886226,1.752668 -0.531111,0.05311 -1.009111,0.05311 -1.540223,0.106222 -0.212444,0 -0.424889,0.05311 -0.637334,0.05311 -0.637333,0.05311 -1.274667,0.159333 -1.912001,0.265555 -0.159333,0 -0.318667,0.05311 -0.478,0.05311 -24.324906,4.939337 -18.004679,42.860703 -17.898457,43.657363 0,0 0,0 0,0 0,0 0,0 0,0 0,0 0,0 0,0 0,0 0,0 0,0 0,-7.70111 3.558447,-14.60556 9.028895,-19.17312 l 0.212445,-0.15933 c 0.531111,-0.42489 1.115334,-0.84978 1.646445,-1.22156 0.106223,-0.0531 0.212445,-0.10622 0.318667,-0.21245 0.584223,-0.37177 1.115334,-0.69044 1.699557,-1.06222 0.106222,-0.0531 0.212445,-0.10622 0.318667,-0.15933 0.584222,-0.31867 1.168445,-0.58422 1.805779,-0.84978 0.106222,-0.0531 0.265556,-0.10622 0.371778,-0.15933 0.478,-0.21245 1.009112,-0.37178 1.487112,-0.53111 -0.318667,-0.31867 -0.637334,-0.63734 -1.009112,-0.90289 -0.796667,-0.53112 -1.752668,-0.84978 -2.761779,-1.00912 -1.009112,-0.21244 -2.071335,-0.21244 -3.133558,-0.15933 -1.062223,0.0531 -2.124446,0.21245 -3.186669,0.478 1.009112,-0.42489 2.018224,-0.79667 3.133558,-1.009114 1.062223,-0.265556 2.177557,-0.424889 3.346002,-0.424889 1.115334,0 2.33689,0.159333 3.452225,0.637333 0.902889,0.37178 1.699556,1.00912 2.390001,1.75267 0,0 0,0 0,0 2.177557,2.49623 5.523559,3.98334 9.135117,3.61156 0.318667,-0.0531 0.637334,-0.10622 0.956001,-0.15933 v 0 h 0.106222 c 0,0 0,0 0.05311,0 l 11.472007,-2.33689 c 0.265556,-0.10623 0.584223,-0.21245 0.849779,-0.31867 z"
         id="path2719"
         style="opacity:0.6;fill:url(#SVGID_7_);stroke-width:0.999998" />
      <path
         class="st11"
         d="m 49.871367,102.06795 c -1.85889,-0.15933 -3.292891,-1.06222 -3.23978,-2.071331 0.05311,-1.009112 1.646446,-1.699557 3.505336,-1.540223 1.85889,0.159333 3.292891,1.062223 3.23978,2.071334 -0.106223,0.956 -1.646446,1.64645 -3.505336,1.54022 z"
         id="path2721"
         style="fill:#ffffff;stroke-width:0.999998" />
    </g>
  </g>
</svg>
